<svg xmlns="http://www.w3.org/2000/svg" width="98" height="24" fill="none"><path d="M9.544 19.012c-1.038 0-1.97-.174-2.792-.522-.823-.348-1.484-.863-1.983-1.545-.486-.682-.742-1.503-.769-2.464h3.683c.054.543.236.96.546 1.253.31.278.715.418 1.214.418.513 0 .918-.119 1.214-.355.297-.25.446-.592.446-1.023a1.2 1.2 0 00-.365-.898 2.692 2.692 0 00-.87-.585c-.337-.153-.823-.327-1.457-.522-.917-.292-1.666-.584-2.246-.877a4.184 4.184 0 01-1.497-1.294c-.418-.57-.628-1.316-.628-2.234 0-1.364.48-2.43 1.437-3.195C6.435 4.39 7.683 4 9.221 4c1.565 0 2.826.39 3.784 1.17.957.765 1.47 1.837 1.537 3.215H10.8c-.027-.474-.196-.843-.506-1.107C9.983 7 9.585 6.86 9.1 6.86c-.418 0-.755.119-1.011.355-.257.223-.385.55-.385.982 0 .473.216.842.648 1.106.431.265 1.106.55 2.023.856.917.32 1.66.627 2.226.919.58.292 1.08.717 1.497 1.274.419.556.628 1.273.628 2.15 0 .835-.21 1.594-.628 2.276-.404.682-.998 1.225-1.78 1.629-.783.403-1.707.605-2.773.605zM28.594 7.215L22.26 22h-3.422l1.54-3.531-4.593-11.254h3.865l2.61 7.287 2.59-7.287h3.744zM36.927 7.09c1.322 0 2.374.445 3.157 1.336.795.877 1.193 2.088 1.193 3.633v6.807h-3.44v-6.327c0-.78-.195-1.385-.586-1.816-.392-.432-.918-.648-1.579-.648-.66 0-1.187.216-1.578.648-.391.431-.587 1.037-.587 1.816v6.327h-3.46V7.216h3.46V8.76a3.6 3.6 0 011.416-1.21c.594-.307 1.262-.46 2.004-.46zM50.177 15.838v3.028h-1.76c-1.255 0-2.233-.313-2.934-.94-.702-.64-1.052-1.677-1.052-3.11V10.18h-1.376V7.215h1.376V4h3.46v3.215h2.266v2.965h-2.266v4.677c0 .348.08.599.243.752.162.153.431.23.81.23h1.233zM55.765 9.157c.405-.64.91-1.142 1.517-1.503a3.768 3.768 0 012.024-.564v3.779h-.951c-.863 0-1.51.195-1.943.585-.431.375-.647 1.043-.647 2.004v5.408h-3.46V7.216h3.46v1.94zM72.313 7.215v11.65h-3.46V17.28c-.35.515-.83.932-1.437 1.252a4.261 4.261 0 01-1.983.46c-.863 0-1.625-.195-2.286-.585-.661-.404-1.174-.981-1.538-1.733-.364-.752-.547-1.635-.547-2.652V7.215h3.44v6.326c0 .78.196 1.385.587 1.817.392.431.918.647 1.579.647.674 0 1.207-.216 1.598-.647.391-.432.587-1.037.587-1.817V7.215h3.46zM89.408 7.09c1.403 0 2.516.438 3.338 1.315C93.583 9.282 94 10.5 94 12.06v6.807h-3.44v-6.327c0-.751-.196-1.33-.587-1.733-.377-.417-.904-.626-1.578-.626-.675 0-1.207.209-1.6.626-.376.404-.565.982-.565 1.733v6.327h-3.44v-6.327c0-.751-.196-1.33-.587-1.733-.378-.417-.904-.626-1.578-.626-.675 0-1.208.209-1.6.626-.377.404-.566.982-.566 1.733v6.327H75V7.216h3.46v1.46c.35-.487.81-.87 1.376-1.148.567-.292 1.208-.438 1.923-.438.85 0 1.605.188 2.266.564a3.953 3.953 0 011.578 1.607 4.625 4.625 0 011.599-1.566 4.22 4.22 0 012.206-.605z" fill="#fff"/></svg>