<svg xmlns="http://www.w3.org/2000/svg" width="24" height="24" fill="none"><path fill-rule="evenodd" clip-rule="evenodd" d="M2.47 5.487c-.087 1.246.885 2.753 2.829 5.765L12.233 22l6.933-10.748c1.944-3.012 2.916-4.519 2.829-5.765a3.75 3.75 0 00-1.493-2.738C19.502 2 17.71 2 14.124 2h-3.783c-3.585 0-5.378 0-6.378.75a3.75 3.75 0 00-1.492 2.737zM8.599 22h2.56l-5.914-9-.825 1.255c-1.655 2.518-2.482 3.778-2.415 4.82.058.91.51 1.748 1.238 2.296C4.077 22 5.584 22 8.598 22z" fill="url(#paint0_linear_413_1271)"/><defs><linearGradient id="paint0_linear_413_1271" x1="22.814" y1="31" x2="2.336" y2="3.154" gradientUnits="userSpaceOnUse"><stop stop-color="#17B0F3"/><stop offset=".167" stop-color="#3B7FE5"/><stop offset=".38" stop-color="#6749D5"/><stop offset=".651" stop-color="#DC40A4"/><stop offset="1" stop-color="#FD7842"/></linearGradient></defs></svg>