<svg width="124" height="24" fill="none" xmlns="http://www.w3.org/2000/svg"><path fill-rule="evenodd" clip-rule="evenodd" d="M5.375 6.79c-.07.996.707 2.202 2.262 4.612L13.185 20l5.546-8.598c1.555-2.41 2.333-3.616 2.263-4.612A3 3 0 0019.8 4.6C19 4 17.566 4 14.697 4h-3.026c-2.868 0-4.303 0-5.102.6a3 3 0 00-1.194 2.19zM10.277 20h2.047l-4.73-7.2-.66 1.004C5.61 15.819 4.948 16.826 5 17.66a2.5 2.5 0 00.991 1.836C6.66 20 7.866 20 10.277 20z" fill="url(#paint0_linear_760_20560)"/><path d="M34.543 19.012c-1.039 0-1.97-.174-2.793-.522-.823-.348-1.484-.863-1.983-1.545-.485-.682-.742-1.503-.769-2.463h3.683c.054.542.236.96.547 1.252.31.279.715.418 1.214.418.512 0 .917-.118 1.214-.355.297-.25.445-.592.445-1.023a1.2 1.2 0 00-.364-.898 2.692 2.692 0 00-.87-.585c-.337-.153-.823-.327-1.457-.521-.918-.293-1.666-.585-2.246-.877a4.183 4.183 0 01-1.498-1.295c-.418-.57-.627-1.315-.627-2.234 0-1.364.479-2.43 1.436-3.195C31.433 4.39 32.681 4 34.22 4c1.565 0 2.826.39 3.784 1.17.958.765 1.47 1.837 1.538 3.215h-3.743c-.027-.474-.196-.842-.506-1.107-.31-.278-.709-.417-1.194-.417-.419 0-.756.118-1.012.354-.256.223-.384.55-.384.982 0 .473.215.842.647 1.106.432.265 1.106.55 2.024.856.917.32 1.659.627 2.226.92a4.26 4.26 0 011.497 1.273c.418.557.627 1.274.627 2.15 0 .836-.209 1.594-.627 2.276-.405.682-.998 1.225-1.78 1.629-.783.404-1.707.605-2.773.605zM53.593 7.215L47.259 22h-3.423l1.541-3.531-4.594-11.254h3.865l2.61 7.287 2.591-7.287h3.744zM61.925 7.09c1.322 0 2.375.445 3.157 1.336.796.877 1.194 2.088 1.194 3.633v6.807h-3.44v-6.327c0-.78-.196-1.385-.587-1.816-.391-.432-.917-.647-1.578-.647s-1.188.215-1.579.647c-.39.431-.587 1.037-.587 1.816v6.327h-3.46V7.216h3.46V8.76a3.6 3.6 0 011.417-1.21c.594-.307 1.261-.46 2.003-.46zM75.176 15.839v3.027h-1.76c-1.255 0-2.233-.313-2.935-.94-.701-.64-1.052-1.677-1.052-3.11V10.18h-1.376V7.215h1.376V4h3.46v3.215h2.267v2.965h-2.267v4.677c0 .348.081.599.243.752.162.153.432.23.81.23h1.234zM80.763 9.157c.405-.64.91-1.142 1.518-1.503a3.768 3.768 0 012.023-.564v3.78h-.95c-.864 0-1.511.194-1.943.584-.432.375-.648 1.044-.648 2.004v5.408h-3.46V7.216h3.46v1.94zM97.312 7.215v11.65h-3.46V17.28c-.351.515-.83.933-1.437 1.253a4.261 4.261 0 01-1.983.459c-.864 0-1.626-.195-2.287-.585-.661-.403-1.174-.981-1.538-1.733-.364-.751-.546-1.635-.546-2.651V7.215h3.44v6.326c0 .78.195 1.385.587 1.817.39.431.917.647 1.578.647.675 0 1.208-.216 1.599-.647.39-.432.587-1.037.587-1.817V7.215h3.46zM114.41 7.09c1.403 0 2.516.438 3.338 1.315.837.877 1.255 2.095 1.255 3.654v6.807h-3.44v-6.327c0-.751-.196-1.329-.587-1.733-.377-.417-.904-.626-1.578-.626-.675 0-1.207.209-1.599.626-.377.404-.566.982-.566 1.733v6.327h-3.44v-6.327c0-.751-.196-1.329-.587-1.733-.378-.417-.904-.626-1.578-.626-.675 0-1.208.209-1.599.626-.378.404-.567.982-.567 1.733v6.327h-3.46V7.216h3.46v1.46c.351-.486.81-.87 1.376-1.148.567-.292 1.208-.438 1.923-.438.85 0 1.605.188 2.266.564a3.953 3.953 0 011.578 1.607 4.625 4.625 0 011.599-1.566 4.22 4.22 0 012.206-.605z" fill="#fff"/><defs><linearGradient id="paint0_linear_760_20560" x1="21.65" y1="27.2" x2="5.267" y2="4.923" gradientUnits="userSpaceOnUse"><stop stop-color="#17B0F3"/><stop offset=".167" stop-color="#3B7FE5"/><stop offset=".38" stop-color="#6749D5"/><stop offset=".651" stop-color="#DC40A4"/><stop offset="1" stop-color="#FD7842"/></linearGradient></defs></svg>