<svg width="436" height="126" viewBox="0 0 436 126" fill="none" xmlns="http://www.w3.org/2000/svg">
<g filter="url(#filter0_d_807_7815)">
<path d="M5.53977 97V87.8736L41.8324 36.9503H5.46875V24.2727H61.1506V33.3991L24.8224 84.3224H61.2216V97H5.53977ZM73.0202 97V24.2727H88.3967V56.3395H89.3555L115.527 24.2727H133.958L106.969 56.8366L134.277 97H115.882L95.9606 67.0994L88.3967 76.3324V97H73.0202ZM141.966 97V24.2727H157.342V84.3224H188.521V97H141.966ZM198.42 97V42.4545H213.548V97H198.42ZM206.019 35.4233C203.77 35.4233 201.841 34.6776 200.231 33.1861C198.645 31.6709 197.852 29.8598 197.852 27.7528C197.852 25.6695 198.645 23.8821 200.231 22.3906C201.841 20.8755 203.77 20.1179 206.019 20.1179C208.268 20.1179 210.186 20.8755 211.772 22.3906C213.382 23.8821 214.187 25.6695 214.187 27.7528C214.187 29.8598 213.382 31.6709 211.772 33.1861C210.186 34.6776 208.268 35.4233 206.019 35.4233ZM261.71 117.455V88.2642H261.248C260.538 89.7794 259.532 91.2827 258.23 92.7741C256.951 94.242 255.282 95.4612 253.223 96.4318C251.187 97.4025 248.701 97.8878 245.765 97.8878C241.622 97.8878 237.87 96.8224 234.508 94.6918C231.17 92.5374 228.519 89.3769 226.554 85.2102C224.612 81.0199 223.642 75.8826 223.642 69.7983C223.642 63.5483 224.648 58.3518 226.66 54.2088C228.672 50.0421 231.348 46.929 234.686 44.8693C238.047 42.786 241.729 41.7443 245.73 41.7443C248.784 41.7443 251.329 42.2652 253.365 43.3068C255.424 44.3248 257.082 45.6032 258.336 47.142C259.615 48.6572 260.585 50.1487 261.248 51.6165H261.887V42.4545H276.802V117.455H261.71ZM250.559 85.8494C252.998 85.8494 255.057 85.1866 256.738 83.8608C258.443 82.5114 259.745 80.6293 260.645 78.2145C261.568 75.7997 262.029 72.9706 262.029 69.7273C262.029 66.4839 261.58 63.6667 260.68 61.2756C259.78 58.8845 258.478 57.0379 256.774 55.7358C255.069 54.4337 252.998 53.7827 250.559 53.7827C248.074 53.7827 245.978 54.4574 244.274 55.8068C242.569 57.1562 241.279 59.0265 240.403 61.4176C239.527 63.8087 239.089 66.5786 239.089 69.7273C239.089 72.8996 239.527 75.705 240.403 78.1435C241.303 80.5582 242.593 82.4522 244.274 83.8253C245.978 85.1747 248.074 85.8494 250.559 85.8494ZM323.926 73.7756V42.4545H339.054V97H324.529V87.0923H323.961C322.73 90.2884 320.682 92.857 317.818 94.7983C314.977 96.7396 311.509 97.7102 307.413 97.7102C303.767 97.7102 300.559 96.8816 297.789 95.2244C295.02 93.5672 292.853 91.2116 291.291 88.1577C289.752 85.1037 288.971 81.446 288.947 77.1847V42.4545H304.075V74.4858C304.099 77.7055 304.963 80.2505 306.667 82.1207C308.372 83.991 310.656 84.9261 313.521 84.9261C315.344 84.9261 317.048 84.5118 318.635 83.6832C320.221 82.831 321.499 81.5762 322.47 79.919C323.464 78.2618 323.949 76.214 323.926 73.7756ZM351.154 97V42.4545H366.282V97H351.154ZM358.754 35.4233C356.504 35.4233 354.575 34.6776 352.965 33.1861C351.379 31.6709 350.586 29.8598 350.586 27.7528C350.586 25.6695 351.379 23.8821 352.965 22.3906C354.575 20.8755 356.504 20.1179 358.754 20.1179C361.003 20.1179 362.92 20.8755 364.506 22.3906C366.116 23.8821 366.921 25.6695 366.921 27.7528C366.921 29.8598 366.116 31.6709 364.506 33.1861C362.92 34.6776 361.003 35.4233 358.754 35.4233ZM398.5 97.8878C394.357 97.8878 390.604 96.8224 387.243 94.6918C383.904 92.5374 381.253 89.3769 379.288 85.2102C377.347 81.0199 376.376 75.8826 376.376 69.7983C376.376 63.5483 377.382 58.3518 379.395 54.2088C381.407 50.0421 384.082 46.929 387.42 44.8693C390.782 42.786 394.463 41.7443 398.464 41.7443C401.518 41.7443 404.063 42.2652 406.099 43.3068C408.159 44.3248 409.816 45.6032 411.071 47.142C412.349 48.6572 413.32 50.1487 413.983 51.6165H414.444V24.2727H429.537V97H414.622V88.2642H413.983C413.272 89.7794 412.266 91.2827 410.964 92.7741C409.686 94.242 408.017 95.4612 405.957 96.4318C403.921 97.4025 401.435 97.8878 398.5 97.8878ZM403.294 85.8494C405.732 85.8494 407.792 85.1866 409.473 83.8608C411.177 82.5114 412.479 80.6293 413.379 78.2145C414.302 75.7997 414.764 72.9706 414.764 69.7273C414.764 66.4839 414.314 63.6667 413.414 61.2756C412.515 58.8845 411.213 57.0379 409.508 55.7358C407.804 54.4337 405.732 53.7827 403.294 53.7827C400.808 53.7827 398.713 54.4574 397.008 55.8068C395.304 57.1562 394.013 59.0265 393.137 61.4176C392.261 63.8087 391.824 66.5786 391.824 69.7273C391.824 72.8996 392.261 75.705 393.137 78.1435C394.037 80.5582 395.327 82.4522 397.008 83.8253C398.713 85.1747 400.808 85.8494 403.294 85.8494Z" fill="white"/>
</g>
<defs>
<filter id="filter0_d_807_7815" x="-4" y="0" width="444" height="129" filterUnits="userSpaceOnUse" color-interpolation-filters="sRGB">
<feFlood flood-opacity="0" result="BackgroundImageFix"/>
<feColorMatrix in="SourceAlpha" type="matrix" values="0 0 0 0 0 0 0 0 0 0 0 0 0 0 0 0 0 0 127 0" result="hardAlpha"/>
<feOffset dy="4"/>
<feGaussianBlur stdDeviation="2"/>
<feComposite in2="hardAlpha" operator="out"/>
<feColorMatrix type="matrix" values="0 0 0 0 0 0 0 0 0 0 0 0 0 0 0 0 0 0 0.25 0"/>
<feBlend mode="normal" in2="BackgroundImageFix" result="effect1_dropShadow_807_7815"/>
<feBlend mode="normal" in="SourceGraphic" in2="effect1_dropShadow_807_7815" result="shape"/>
</filter>
</defs>
</svg>
