<svg width="150" height="150" viewBox="0 0 150 150" fill="none" xmlns="http://www.w3.org/2000/svg">
<path d="M67.8385 130.914C68.1554 131.358 68.3192 131.892 68.3049 132.437C68.2908 132.982 68.0995 133.507 67.76 133.933C67.4206 134.36 66.9513 134.663 66.4237 134.799C65.8958 134.935 65.3381 134.895 64.8351 134.685C51.2296 128.916 35.332 116.428 35.332 94.9302C35.332 68.5884 61.5948 58.5395 68.0192 38.0126C70.1254 31.5699 71.1182 24.8153 70.9549 18.039C70.9435 17.6492 71.0553 17.2658 71.2745 16.9434C71.4937 16.6209 71.8092 16.3759 72.1758 16.2433C72.5426 16.1106 72.9417 16.0971 73.3165 16.2046C73.6912 16.3122 74.0226 16.5353 74.2632 16.8421C81.7539 26.1213 86.0363 37.5779 86.4685 49.4955C87.3154 67.6513 67.8838 82.2392 61.4706 96.9174C55.7008 110.342 62.3737 123.349 67.8385 130.914Z" fill="url(#paint0_linear_806_7805)"/>
<path d="M114.394 119.976C114.394 122.348 113.452 124.622 111.774 126.3C110.097 127.977 107.822 128.919 105.45 128.919C103.078 128.919 100.803 127.977 99.1264 126.3C97.449 124.622 96.5068 122.348 96.5068 119.976C96.5088 119.259 96.6034 118.547 96.7879 117.855L83.3981 111.185C81.7586 112.728 79.5928 113.587 77.3419 113.587C74.9701 113.587 72.6951 112.645 71.0178 110.968C69.3407 109.29 68.3984 107.016 68.3984 104.644C68.3984 102.272 69.3407 99.9968 71.0178 98.3196C72.6951 96.6423 74.9701 95.7001 77.3419 95.7001C79.5928 95.7007 81.7586 96.5597 83.3981 98.1021L96.7879 91.4327C96.6034 90.7407 96.5088 90.0278 96.5068 89.3118C96.5068 87.543 97.0313 85.8137 98.0142 84.343C98.9968 82.8723 100.394 81.7259 102.028 81.049C103.662 80.3721 105.46 80.1949 107.195 80.54C108.93 80.885 110.524 81.7369 111.774 82.9878C113.025 84.2385 113.877 85.8322 114.222 87.567C114.567 89.3019 114.39 91.1001 113.713 92.7344C113.036 94.3686 111.89 95.7655 110.419 96.7481C108.949 97.7309 107.219 98.2555 105.45 98.2555C103.2 98.2548 101.034 97.3958 99.3942 95.8534L86.0044 102.523C86.3789 103.912 86.3789 105.375 86.0044 106.765L99.3942 113.434C101.034 111.892 103.2 111.033 105.45 111.032C107.822 111.032 110.097 111.974 111.774 113.652C113.452 115.329 114.394 117.604 114.394 119.976Z" fill="url(#paint1_linear_806_7805)"/>
<defs>
<linearGradient id="paint0_linear_806_7805" x1="60.9137" y1="16.1328" x2="60.9137" y2="134.878" gradientUnits="userSpaceOnUse">
<stop stop-color="#2DD4BF"/>
<stop offset="1" stop-color="#7217F6" stop-opacity="0.8"/>
</linearGradient>
<linearGradient id="paint1_linear_806_7805" x1="91.3963" y1="80.3682" x2="91.3963" y2="128.919" gradientUnits="userSpaceOnUse">
<stop stop-color="#2DD4BF"/>
<stop offset="1" stop-color="#7217F6" stop-opacity="0.8"/>
</linearGradient>
</defs>
</svg>
