<svg width="571" height="125" viewBox="0 0 571 125" fill="none" xmlns="http://www.w3.org/2000/svg">
<path d="M55.0885 118.164C55.4054 118.608 55.5692 119.142 55.5549 119.687C55.5408 120.232 55.3495 120.757 55.01 121.183C54.6706 121.61 54.2013 121.913 53.6737 122.049C53.1458 122.185 52.5881 122.145 52.0851 121.935C38.4796 116.166 22.582 103.678 22.582 82.1802C22.582 55.8384 48.8448 45.7895 55.2692 25.2626C57.3754 18.8199 58.3682 12.0653 58.2049 5.28898C58.1935 4.89924 58.3053 4.51581 58.5245 4.19337C58.7437 3.87093 59.0592 3.62592 59.4258 3.49325C59.7926 3.36061 60.1917 3.34709 60.5665 3.45463C60.9412 3.56217 61.2726 3.78527 61.5132 4.09215C69.0039 13.3713 73.2863 24.8279 73.7185 36.7455C74.5654 54.9013 55.1338 69.4892 48.7206 84.1674C42.9508 97.5922 49.6237 110.599 55.0885 118.164Z" fill="url(#paint0_linear_806_7813)"/>
<path d="M101.644 107.226C101.644 109.598 100.702 111.872 99.0245 113.55C97.3472 115.227 95.0724 116.169 92.7004 116.169C90.3284 116.169 88.0535 115.227 86.3764 113.55C84.699 111.872 83.7568 109.598 83.7568 107.226C83.7588 106.509 83.8534 105.797 84.0379 105.105L70.6481 98.4353C69.0086 99.9777 66.8428 100.837 64.5919 100.837C62.2201 100.837 59.9451 99.8951 58.2678 98.2178C56.5907 96.5404 55.6484 94.2657 55.6484 91.8937C55.6484 89.5217 56.5907 87.2468 58.2678 85.5696C59.9451 83.8923 62.2201 82.9501 64.5919 82.9501C66.8428 82.9507 69.0086 83.8097 70.6481 85.3521L84.0379 78.6827C83.8534 77.9907 83.7588 77.2778 83.7568 76.5618C83.7568 74.793 84.2813 73.0637 85.2642 71.593C86.2468 70.1223 87.6436 68.9759 89.2779 68.299C90.9122 67.6221 92.7104 67.4449 94.4452 67.79C96.1801 68.135 97.7738 68.9869 99.0245 70.2378C100.275 71.4885 101.127 73.0822 101.472 74.817C101.817 76.5519 101.64 78.3501 100.963 79.9844C100.286 81.6186 99.14 83.0155 97.6693 83.9981C96.1985 84.9809 94.4692 85.5055 92.7004 85.5055C90.4495 85.5048 88.2837 84.6458 86.6442 83.1034L73.2544 89.7728C73.6289 91.162 73.6289 92.6254 73.2544 94.0146L86.6442 100.684C88.2837 99.1416 90.4495 98.2825 92.7004 98.2819C95.0724 98.2819 97.3472 99.2242 99.0245 100.902C100.702 102.579 101.644 104.854 101.644 107.226Z" fill="url(#paint1_linear_806_7813)"/>
<path d="M139.739 100.2V91.0738L176.032 40.1505H139.668V27.4729H195.35V36.5993L159.022 87.5226H195.421V100.2H139.739ZM207.219 100.2V27.4729H222.596V59.5397H223.555L249.727 27.4729H268.157L241.168 60.0368L268.477 100.2H250.082L230.16 70.2996L222.596 79.5326V100.2H207.219ZM276.165 100.2V27.4729H291.541V87.5226H322.72V100.2H276.165ZM332.619 100.2V45.6547H347.747V100.2H332.619ZM340.218 38.6235C337.969 38.6235 336.04 37.8777 334.43 36.3863C332.844 34.8711 332.051 33.06 332.051 30.953C332.051 28.8697 332.844 27.0823 334.43 25.5908C336.04 24.0757 337.969 23.3181 340.218 23.3181C342.467 23.3181 344.385 24.0757 345.971 25.5908C347.581 27.0823 348.386 28.8697 348.386 30.953C348.386 33.06 347.581 34.8711 345.971 36.3863C344.385 37.8777 342.467 38.6235 340.218 38.6235ZM395.909 120.655V91.4644H395.447C394.737 92.9796 393.731 94.4829 392.429 95.9743C391.151 97.4421 389.482 98.6614 387.422 99.632C385.386 100.603 382.9 101.088 379.964 101.088C375.821 101.088 372.069 100.023 368.707 97.892C365.369 95.7376 362.718 92.5771 360.753 88.4104C358.812 84.2201 357.841 79.0828 357.841 72.9985C357.841 66.7485 358.847 61.552 360.859 57.409C362.872 53.2423 365.547 50.1292 368.885 48.0695C372.247 45.9862 375.928 44.9445 379.929 44.9445C382.983 44.9445 385.528 45.4653 387.564 46.507C389.624 47.525 391.281 48.8034 392.536 50.3422C393.814 51.8574 394.785 53.3489 395.447 54.8167H396.087V45.6547H411.001V120.655H395.909ZM384.759 89.0496C387.197 89.0496 389.257 88.3867 390.938 87.061C392.642 85.7116 393.944 83.8295 394.844 81.4147C395.767 78.9999 396.229 76.1708 396.229 72.9275C396.229 69.6841 395.779 66.8669 394.879 64.4758C393.98 62.0847 392.678 60.2381 390.973 58.936C389.268 57.6339 387.197 56.9829 384.759 56.9829C382.273 56.9829 380.178 57.6576 378.473 59.007C376.768 60.3564 375.478 62.2267 374.602 64.6178C373.726 67.0089 373.288 69.7788 373.288 72.9275C373.288 76.0998 373.726 78.9052 374.602 81.3437C375.502 83.7584 376.792 85.6524 378.473 87.0255C380.178 88.3749 382.273 89.0496 384.759 89.0496ZM458.125 76.9758V45.6547H473.253V100.2H458.729V90.2925H458.161C456.929 93.4885 454.882 96.0572 452.017 97.9985C449.176 99.9398 445.708 100.91 441.612 100.91C437.966 100.91 434.759 100.082 431.989 98.4246C429.219 96.7674 427.053 94.4118 425.49 91.3579C423.951 88.3039 423.17 84.6462 423.146 80.3849V45.6547H438.274V77.686C438.298 80.9057 439.162 83.4507 440.866 85.3209C442.571 87.1912 444.856 88.1263 447.72 88.1263C449.543 88.1263 451.248 87.712 452.834 86.8834C454.42 86.0312 455.698 84.7764 456.669 83.1192C457.663 81.462 458.149 79.4142 458.125 76.9758ZM485.353 100.2V45.6547H500.481V100.2H485.353ZM492.953 38.6235C490.704 38.6235 488.774 37.8777 487.164 36.3863C485.578 34.8711 484.785 33.06 484.785 30.953C484.785 28.8697 485.578 27.0823 487.164 25.5908C488.774 24.0757 490.704 23.3181 492.953 23.3181C495.202 23.3181 497.119 24.0757 498.706 25.5908C500.315 27.0823 501.12 28.8697 501.12 30.953C501.12 33.06 500.315 34.8711 498.706 36.3863C497.119 37.8777 495.202 38.6235 492.953 38.6235ZM532.699 101.088C528.556 101.088 524.804 100.023 521.442 97.892C518.104 95.7376 515.452 92.5771 513.487 88.4104C511.546 84.2201 510.575 79.0828 510.575 72.9985C510.575 66.7485 511.581 61.552 513.594 57.409C515.606 53.2423 518.281 50.1292 521.619 48.0695C524.981 45.9862 528.662 44.9445 532.663 44.9445C535.717 44.9445 538.262 45.4653 540.298 46.507C542.358 47.525 544.015 48.8034 545.27 50.3422C546.548 51.8574 547.519 53.3489 548.182 54.8167H548.643V27.4729H563.736V100.2H548.821V91.4644H548.182C547.472 92.9796 546.465 94.4829 545.163 95.9743C543.885 97.4421 542.216 98.6614 540.156 99.632C538.12 100.603 535.634 101.088 532.699 101.088ZM537.493 89.0496C539.931 89.0496 541.991 88.3867 543.672 87.061C545.376 85.7116 546.679 83.8295 547.578 81.4147C548.501 78.9999 548.963 76.1708 548.963 72.9275C548.963 69.6841 548.513 66.8669 547.614 64.4758C546.714 62.0847 545.412 60.2381 543.707 58.936C542.003 57.6339 539.931 56.9829 537.493 56.9829C535.007 56.9829 532.912 57.6576 531.207 59.007C529.503 60.3564 528.213 62.2267 527.337 64.6178C526.461 67.0089 526.023 69.7788 526.023 72.9275C526.023 76.0998 526.461 78.9052 527.337 81.3437C528.236 83.7584 529.527 85.6524 531.207 87.0255C532.912 88.3749 535.007 89.0496 537.493 89.0496Z" fill="white"/>
<defs>
<linearGradient id="paint0_linear_806_7813" x1="48.1637" y1="3.38281" x2="48.1637" y2="122.128" gradientUnits="userSpaceOnUse">
<stop stop-color="#2DD4BF"/>
<stop offset="1" stop-color="#7217F6" stop-opacity="0.8"/>
</linearGradient>
<linearGradient id="paint1_linear_806_7813" x1="78.6463" y1="67.6182" x2="78.6463" y2="116.169" gradientUnits="userSpaceOnUse">
<stop stop-color="#2DD4BF"/>
<stop offset="1" stop-color="#7217F6" stop-opacity="0.8"/>
</linearGradient>
</defs>
</svg>
