<svg width="64" height="65" viewBox="0 0 64 65" fill="none" xmlns="http://www.w3.org/2000/svg">
<path d="M64 32.699C64 50.3722 49.6733 64.6992 32.0002 64.6992C14.3269 64.6992 0 50.3722 0 32.699C0 15.026 14.3269 0.699219 32.0002 0.699219C49.6731 0.699219 64 15.026 64 32.699" fill="#9AA1BC" fill-opacity="0.2"/>
<g opacity="0.8">
<path d="M31.9964 12.6992L31.7344 13.5742V38.9644L31.9964 39.2214L43.9926 32.2548L31.9964 12.6992Z" fill="#62688F"/>
<path d="M31.9962 12.6992L20 32.2548L31.9962 39.2215V26.8978V12.6992Z" fill="#8A92B2"/>
<path d="M31.9953 43.0549L31.8477 43.2317V52.2763L31.9953 52.7L43.9987 36.0918L31.9953 43.0549Z" fill="#62688F"/>
<path d="M31.9962 52.7001V43.0549L20 36.0918L31.9962 52.7001Z" fill="#8A92B2"/>
<path d="M31.9961 39.2219L43.9921 32.2554L31.9961 26.8984V39.2219Z" fill="#454A75"/>
<path d="M20 32.2554L31.996 39.222V26.8984L20 32.2554Z" fill="#62688F"/>
</g>
</svg>
