<svg width="140" height="140" viewBox="0 0 140 140" fill="none" xmlns="http://www.w3.org/2000/svg">
<g clip-path="url(#clip0_868_8358)">
<path opacity="0.2" d="M140 69.9996C140 108.66 108.66 140 70.0004 140C31.3401 140 0 108.66 0 69.9996C0 31.3399 31.3401 0 70.0004 0C108.66 0 140 31.3399 140 69.9996" fill="#F3F3F3"/>
<rect x="25" y="25" width="90" height="90" rx="45" fill="white" fill-opacity="0.8"/>
<path d="M103.751 48.3251L40.0005 73.7501C39.8513 72.5056 39.7761 71.2534 39.7755 70.0001C39.7602 65.2791 40.879 60.6235 43.038 56.4251C45.5442 51.486 49.3688 47.3371 54.0881 44.4381C58.8073 41.539 64.237 40.0029 69.7755 40.0001C73.1876 39.9927 76.5752 40.5763 79.788 41.7251" stroke="black" stroke-width="7.49998" stroke-linecap="round" stroke-linejoin="round"/>
<path d="M60.175 98.2752C67.046 100.713 74.5699 100.566 81.3402 97.8609C88.1106 95.1556 93.664 90.077 96.9623 83.575C99.1216 79.3766 100.241 74.721 100.225 70C100.226 68.7466 100.151 67.4943 99.9998 66.25L36.25 91.6747" stroke="black" stroke-width="7.49998" stroke-linecap="round" stroke-linejoin="round"/>
</g>
<defs>
<clipPath id="clip0_868_8358">
<rect width="140" height="140" fill="white"/>
</clipPath>
</defs>
</svg>
