<svg width="64" height="64" viewBox="0 0 64 64" fill="none" xmlns="http://www.w3.org/2000/svg">
<g clip-path="url(#clip0_835_8202)">
<path opacity="0.2" d="M64 31.9998C64 49.673 49.6733 64 32.0002 64C14.3269 64 0 49.673 0 31.9998C0 14.3268 14.3269 0 32.0002 0C49.6731 0 64 14.3268 64 31.9998" fill="#8247E5"/>
<g clip-path="url(#clip1_835_8202)">
<path d="M42.5011 25.2071C41.7511 24.7785 40.7868 24.7785 39.9297 25.2071L33.9297 28.7428L29.8583 30.9928L23.9654 34.5285C23.2154 34.9571 22.2511 34.9571 21.394 34.5285L16.7868 31.7428C16.0368 31.3142 15.5011 30.4571 15.5011 29.4928V24.1357C15.5011 23.2785 15.9297 22.4214 16.7868 21.8857L21.394 19.2071C22.144 18.7785 23.1083 18.7785 23.9654 19.2071L28.5725 21.9928C29.3225 22.4214 29.8583 23.2785 29.8583 24.2428V27.7785L33.9297 25.4214V21.7785C33.9297 20.9214 33.5011 20.0642 32.644 19.5285L24.0725 14.4928C23.3225 14.0642 22.3583 14.0642 21.5011 14.4928L12.7154 19.6357C11.8583 20.0642 11.4297 20.9214 11.4297 21.7785V31.85C11.4297 32.7071 11.8583 33.5642 12.7154 34.1L21.394 39.1357C22.144 39.5642 23.1083 39.5642 23.9654 39.1357L29.8583 35.7071L33.9297 33.35L39.8225 29.9214C40.5725 29.4928 41.5368 29.4928 42.394 29.9214L47.0011 32.6C47.7511 33.0285 48.2868 33.8857 48.2868 34.85V40.2071C48.2868 41.0642 47.8583 41.9214 47.0011 42.4571L42.5011 45.1357C41.7511 45.5642 40.7868 45.5642 39.9297 45.1357L35.3225 42.4571C34.5725 42.0285 34.0368 41.1714 34.0368 40.2071V36.7785L29.9654 39.1357V42.6714C29.9654 43.5285 30.394 44.3857 31.2511 44.9214L39.9297 49.9571C40.6797 50.3857 41.644 50.3857 42.5011 49.9571L51.1797 44.9214C51.9297 44.4928 52.4654 43.6357 52.4654 42.6714V32.4928C52.4654 31.6357 52.0368 30.7785 51.1797 30.2428L42.5011 25.2071Z" fill="#8247E5"/>
</g>
</g>
<defs>
<clipPath id="clip0_835_8202">
<rect width="64" height="64" fill="white"/>
</clipPath>
<clipPath id="clip1_835_8202">
<rect width="41.1429" height="35.8929" fill="white" transform="translate(11.4277 14.1714)"/>
</clipPath>
</defs>
</svg>
