<svg width="148" height="148" viewBox="0 0 148 148" fill="none" xmlns="http://www.w3.org/2000/svg">
<g clip-path="url(#clip0_851_8318)" filter="url(#filter0_d_851_8318)">
<path opacity="0.2" d="M144 69.9996C144 108.66 112.66 140 74.0004 140C35.3401 140 4 108.66 4 69.9996C4 31.3399 35.3401 0 74.0004 0C112.66 0 144 31.3399 144 69.9996" fill="#9DCCED"/>
<path d="M31.3125 49.3121V89.6881C31.3125 92.2837 32.6721 94.6321 34.9381 95.9505L69.9169 116.139C72.1417 117.416 74.9021 117.416 77.1269 116.139L112.106 95.9505C114.331 94.6733 115.731 92.2837 115.731 89.6881V49.3121C115.731 46.7165 114.372 44.3681 112.106 43.0497L77.1269 22.8617C74.9021 21.5845 72.1417 21.5845 69.9169 22.8617L34.9381 43.0497C32.7133 44.3269 31.3537 46.7165 31.3537 49.3121H31.3125Z" fill="#213147"/>
<path d="M81.1306 77.3291L76.1454 91.0075C76.0218 91.3783 76.0218 91.7903 76.1454 92.2023L84.715 115.728L94.6442 110.001L82.7374 77.3291C82.449 76.5875 81.419 76.5875 81.1306 77.3291Z" fill="#12AAFF"/>
<path d="M91.1378 54.3394C90.8494 53.5978 89.8194 53.5978 89.531 54.3394L84.5458 68.0178C84.4222 68.3886 84.4222 68.8006 84.5458 69.2126L98.595 107.735L108.524 102.008L91.1378 54.3806V54.3394Z" fill="#12AAFF"/>
<path d="M73.5012 24.386C73.7484 24.386 73.9956 24.4684 74.2016 24.592L112.023 46.428C112.476 46.6752 112.724 47.1696 112.724 47.664V91.336C112.724 91.8304 112.435 92.3248 112.023 92.572L74.2016 114.408C73.9956 114.532 73.7484 114.614 73.5012 114.614C73.254 114.614 73.0068 114.532 72.8008 114.408L34.9792 92.572C34.526 92.3248 34.2788 91.8304 34.2788 91.336V47.6228C34.2788 47.1284 34.5672 46.634 34.9792 46.3868L72.8008 24.5508C73.0068 24.4272 73.254 24.3448 73.5012 24.3448V24.386ZM73.5012 18C72.1416 18 70.8232 18.3296 69.5872 19.03L31.7656 40.866C29.3348 42.2668 27.8516 44.8212 27.8516 47.6228V91.2948C27.8516 94.0964 29.3348 96.6508 31.7656 98.0516L69.5872 119.888C70.782 120.588 72.1416 120.918 73.5012 120.918C74.8608 120.918 76.1792 120.588 77.4152 119.888L115.237 98.0516C117.668 96.6508 119.151 94.0964 119.151 91.2948V47.6228C119.151 44.8212 117.668 42.2668 115.237 40.866L77.374 19.03C76.1792 18.3296 74.8196 18 73.46 18H73.5012Z" fill="#9DCCED"/>
<path d="M48.4531 107.775L51.9551 98.2168L58.9591 104.026L52.4083 110.041L48.4531 107.775Z" fill="#213147"/>
<path d="M70.2867 44.5329H60.6871C59.9867 44.5329 59.3275 44.9861 59.0803 45.6453L38.5215 102.007L48.4507 107.734L71.1107 45.6453C71.3167 45.0685 70.9047 44.4917 70.3279 44.4917L70.2867 44.5329Z" fill="white"/>
<path d="M87.0947 44.5329H77.4951C76.7947 44.5329 76.1355 44.9861 75.8883 45.6453L52.4043 110L62.3335 115.727L87.8775 45.6453C88.0835 45.0685 87.6715 44.4917 87.0947 44.4917V44.5329Z" fill="white"/>
</g>
<defs>
<filter id="filter0_d_851_8318" x="0" y="0" width="148" height="148" filterUnits="userSpaceOnUse" color-interpolation-filters="sRGB">
<feFlood flood-opacity="0" result="BackgroundImageFix"/>
<feColorMatrix in="SourceAlpha" type="matrix" values="0 0 0 0 0 0 0 0 0 0 0 0 0 0 0 0 0 0 127 0" result="hardAlpha"/>
<feOffset dy="4"/>
<feGaussianBlur stdDeviation="2"/>
<feComposite in2="hardAlpha" operator="out"/>
<feColorMatrix type="matrix" values="0 0 0 0 0 0 0 0 0 0 0 0 0 0 0 0 0 0 0.25 0"/>
<feBlend mode="normal" in2="BackgroundImageFix" result="effect1_dropShadow_851_8318"/>
<feBlend mode="normal" in="SourceGraphic" in2="effect1_dropShadow_851_8318" result="shape"/>
</filter>
<clipPath id="clip0_851_8318">
<rect width="140" height="140" fill="white" transform="translate(4)"/>
</clipPath>
</defs>
</svg>
