<svg width="140" height="140" viewBox="0 0 140 140" fill="none" xmlns="http://www.w3.org/2000/svg">
<g clip-path="url(#clip0_841_8221)">
<path opacity="0.2" d="M140 69.9996C140 108.66 108.66 140 70.0004 140C31.3401 140 0 108.66 0 69.9996C0 31.3399 31.3401 0 70.0004 0C108.66 0 140 31.3399 140 69.9996" fill="#0052FF"/>
<path d="M70 25C94.8525 25 115 45.1475 115 70C115 94.8525 94.8525 115 70 115C45.1475 115 25 94.8525 25 70C25 45.1475 45.1475 25 70 25Z" fill="#0052FF"/>
<path d="M70.0195 85.8134C61.2733 85.8134 54.206 78.7266 54.206 69.9999C54.206 61.2733 61.2928 54.1865 70.0195 54.1865C77.8481 54.1865 84.3492 59.8871 85.5986 67.3644H101.529C100.182 51.1214 86.5943 38.3535 69.9999 38.3535C52.527 38.3535 38.3535 52.5271 38.3535 69.9999C38.3535 87.4728 52.527 101.646 69.9999 101.646C86.5943 101.646 100.182 88.8785 101.529 72.6355H85.5791C84.3297 80.1127 77.8481 85.8134 70.0195 85.8134Z" fill="white"/>
</g>
<defs>
<clipPath id="clip0_841_8221">
<rect width="140" height="140" fill="white"/>
</clipPath>
</defs>
</svg>
