<svg width="140" height="140" viewBox="0 0 140 140" fill="none" xmlns="http://www.w3.org/2000/svg">
<g clip-path="url(#clip0_851_8350)">
<path opacity="0.2" d="M70 140C108.66 140 140 108.66 140 70C140 31.3401 108.66 0 70 0C31.3401 0 0 31.3401 0 70C0 108.66 31.3401 140 70 140Z" fill="#F3BA2F"/>
<path fill-rule="evenodd" clip-rule="evenodd" d="M53.0161 63.0162L70.0106 46.0291L87.012 63.03L96.895 53.1404L70.0106 26.25L43.1262 53.1335L53.0161 63.0162ZM26.25 70.0043L36.1362 60.1183L46.0225 70.0043L36.1362 79.8902L26.25 70.0043ZM70.0073 93.9778L53.0128 76.9838L43.1091 86.8596L43.123 86.8734L70.0073 113.75L96.8917 86.8596L96.8986 86.8527L87.0088 76.9769L70.0073 93.9778ZM93.9771 70.0043L103.863 60.1183L113.75 70.0043L103.863 79.8902L93.9771 70.0043ZM70.0102 59.964L80.0382 69.9987H80.0452L80.0382 70.0056L70.0102 80.0403L59.9821 70.0194L59.9683 69.9987L59.9821 69.9848L61.7375 68.2295L62.5945 67.3794L70.0102 59.964Z" fill="#F3BA2F"/>
</g>
<defs>
<clipPath id="clip0_851_8350">
<rect width="140" height="140" fill="white"/>
</clipPath>
</defs>
</svg>
