<svg width="140" height="140" viewBox="0 0 140 140" fill="none" xmlns="http://www.w3.org/2000/svg">
<g clip-path="url(#clip0_843_8299)">
<path opacity="0.2" d="M140 69.9996C140 108.66 108.66 140 70.0004 140C31.3401 140 0 108.66 0 69.9996C0 31.3399 31.3401 0 70.0004 0C108.66 0 140 31.3399 140 69.9996" fill="#EFEFEF"/>
<path d="M69.5625 114.562C60.6624 114.562 51.9621 111.923 44.5619 106.979C37.1616 102.034 31.3939 95.0059 27.9879 86.7833C24.582 78.5606 23.6908 69.5126 25.4272 60.7834C27.1635 52.0543 31.4494 44.0361 37.7427 37.7427C44.0361 31.4494 52.0543 27.1635 60.7834 25.4272C69.5126 23.6908 78.5606 24.582 86.7833 27.9879C95.0059 31.3939 102.034 37.1616 106.979 44.5619C111.923 51.9621 114.562 60.6624 114.562 69.5625C114.562 81.4972 109.821 92.9432 101.382 101.382C92.9432 109.821 81.4972 114.562 69.5625 114.562ZM69.5625 31.4856C62.0316 31.4856 54.6698 33.7188 48.4081 37.9027C42.1464 42.0867 37.266 48.0335 34.384 54.9911C31.5021 61.9488 30.748 69.6048 32.2172 76.9909C33.6864 84.3771 37.3129 91.1618 42.6381 96.487C47.9632 101.812 54.7479 105.439 62.1341 106.908C69.5203 108.377 77.1763 107.623 84.1339 104.741C91.0916 101.859 97.0384 96.9786 101.222 90.7169C105.406 84.4552 107.639 77.0934 107.639 69.5625C107.639 59.4639 103.628 49.7789 96.487 42.6381C89.3461 35.4973 79.6611 31.4856 69.5625 31.4856Z" fill="#EFEFEF"/>
<path d="M69.5631 93.7931C68.645 93.7931 67.7646 93.4284 67.1154 92.7792C66.4663 92.1301 66.1016 91.2496 66.1016 90.3315V48.7931C66.1016 47.875 66.4663 46.9946 67.1154 46.3454C67.7646 45.6962 68.645 45.3315 69.5631 45.3315C70.4812 45.3315 71.3616 45.6962 72.0108 46.3454C72.6599 46.9946 73.0246 47.875 73.0246 48.7931V90.3315C73.0246 91.2496 72.6599 92.1301 72.0108 92.7792C71.3616 93.4284 70.4812 93.7931 69.5631 93.7931Z" fill="#EFEFEF"/>
<path d="M90.332 73.0241H48.7936C47.8755 73.0241 46.9951 72.6595 46.3459 72.0103C45.6967 71.3611 45.332 70.4807 45.332 69.5626C45.332 68.6446 45.6967 67.7641 46.3459 67.1149C46.9951 66.4658 47.8755 66.1011 48.7936 66.1011H90.332C91.2501 66.1011 92.1305 66.4658 92.7797 67.1149C93.4289 67.7641 93.7936 68.6446 93.7936 69.5626C93.7936 70.4807 93.4289 71.3611 92.7797 72.0103C92.1305 72.6595 91.2501 73.0241 90.332 73.0241Z" fill="#EFEFEF"/>
</g>
<defs>
<clipPath id="clip0_843_8299">
<rect width="140" height="140" fill="white"/>
</clipPath>
</defs>
</svg>
