<svg width="140" height="140" viewBox="0 0 140 140" fill="none" xmlns="http://www.w3.org/2000/svg">
<g clip-path="url(#clip0_844_8328)">
<path opacity="0.2" d="M140 69.9996C140 108.66 108.66 140 70.0004 140C31.3401 140 0 108.66 0 69.9996C0 31.3399 31.3401 0 70.0004 0C108.66 0 140 31.3399 140 69.9996" fill="#2775CA"/>
<g clip-path="url(#clip1_844_8328)">
<mask id="mask0_844_8328" style="mask-type:alpha" maskUnits="userSpaceOnUse" x="25" y="25" width="90" height="90">
<path d="M25 25H115V115H25V25Z" fill="white"/>
</mask>
<g mask="url(#mask0_844_8328)">
<path fill-rule="evenodd" clip-rule="evenodd" d="M70 25C94.8533 25 115 45.1467 115 70C115 94.8513 94.8533 115 70 115C45.1467 115 25 94.8513 25 70C25 45.1467 45.1467 25 70 25Z" fill="#2775CA"/>
</g>
<path fill-rule="evenodd" clip-rule="evenodd" d="M61.5576 101.287C61.5576 102.346 60.7287 102.947 59.7049 102.627C46.0991 98.2868 36.2344 85.5288 36.2344 70.4753C36.2344 55.4223 46.0991 42.6638 59.7049 38.3233C60.7287 38.0058 61.5576 38.6051 61.5576 39.6636V42.2767C61.5576 42.9813 61.0115 43.8108 60.3401 44.0404C49.5753 47.9932 41.864 58.3345 41.864 70.4574C41.864 82.5803 49.5753 92.9237 60.3401 96.8744C61.0115 97.1219 61.5576 97.933 61.5576 98.6402V101.287Z" fill="white"/>
<path fill-rule="evenodd" clip-rule="evenodd" d="M72.7989 91.5634C72.7989 92.3406 72.1638 92.9758 71.3875 92.9758H68.5812C67.8049 92.9758 67.1698 92.3406 67.1698 91.5634V87.1171C61.0283 86.2881 58.0292 82.8462 57.2171 78.1702C57.0755 77.3751 57.7106 76.652 58.5226 76.652H61.7345C62.4049 76.652 62.97 77.1291 63.1111 77.7985C63.7114 80.587 65.3171 82.7224 70.24 82.7224C73.8753 82.7224 76.4526 80.6928 76.4526 77.6589C76.4526 74.6224 74.9343 73.4759 69.6049 72.5928C61.7345 71.5343 58.0113 69.1513 58.0113 62.9751C58.0113 58.2107 61.6118 54.5054 67.1877 53.7107V49.3518C67.1877 48.5751 67.8233 47.9395 68.599 47.9395H71.4054C72.1817 47.9395 72.8168 48.5751 72.8168 49.3518V53.8345C77.3521 54.6475 80.2285 57.2222 81.1643 61.4926C81.3402 62.3057 80.7051 63.063 79.8762 63.063H76.9108C76.2756 63.063 75.7464 62.6391 75.5526 62.0219C74.7584 59.3055 72.8168 58.1412 69.4459 58.1412C65.7226 58.1412 63.7989 59.9406 63.7989 62.4637C63.7989 65.1284 64.8937 66.4687 70.6118 67.2997C78.34 68.3582 82.3292 70.5637 82.3292 77.1475C82.3292 82.141 78.6228 86.1823 72.8168 87.1171V91.5634H72.7989Z" fill="white"/>
<path fill-rule="evenodd" clip-rule="evenodd" d="M80.2902 102.628C79.2674 102.948 78.4375 102.347 78.4375 101.288V98.6772C78.4375 97.9004 78.9141 97.1773 79.6551 96.9114C90.4198 92.9586 98.1311 82.6173 98.1311 70.4944C98.1311 58.3715 90.4198 48.0302 79.6551 44.0773C78.9847 43.8298 78.4375 43.0188 78.4375 42.3116V39.7006C78.4375 38.642 79.2674 38.0248 80.2902 38.3582C93.896 42.7013 103.761 55.4593 103.761 70.5123C103.744 85.5295 93.896 98.2701 80.2902 102.628Z" fill="white"/>
</g>
</g>
<defs>
<clipPath id="clip0_844_8328">
<rect width="140" height="140" fill="white"/>
</clipPath>
<clipPath id="clip1_844_8328">
<rect width="90" height="90" fill="white" transform="translate(25 25)"/>
</clipPath>
</defs>
</svg>
