<svg width="140" height="140" viewBox="0 0 140 140" fill="none" xmlns="http://www.w3.org/2000/svg">
<g clip-path="url(#clip0_844_8354)">
<path opacity="0.2" d="M140 69.9996C140 108.66 108.66 140 70.0004 140C31.3401 140 0 108.66 0 69.9996C0 31.3399 31.3401 0 70.0004 0C108.66 0 140 31.3399 140 69.9996Z" fill="#48A68E"/>
<path fill-rule="evenodd" clip-rule="evenodd" d="M42.2704 31.0118L26.3157 65.6835C26.2548 65.8125 26.2356 65.9582 26.2608 66.0993C26.2857 66.2404 26.3537 66.3695 26.4548 66.4677L69.545 109.186C69.6675 109.307 69.8305 109.375 70 109.375C70.1696 109.375 70.3325 109.307 70.455 109.186L113.545 66.4703C113.646 66.3721 113.714 66.243 113.739 66.1019C113.764 65.9608 113.745 65.8151 113.684 65.6861L97.7297 31.0144C97.678 30.898 97.5953 30.7994 97.491 30.7303C97.3869 30.6614 97.2657 30.6248 97.1419 30.625H42.8634C42.739 30.6235 42.6169 30.6592 42.5117 30.7279C42.4065 30.7963 42.3227 30.895 42.2704 31.0118Z" fill="#50AF95"/>
<path fill-rule="evenodd" clip-rule="evenodd" d="M74.7495 69.1557C74.45 69.1807 72.903 69.2839 69.4516 69.2839C66.7067 69.2839 64.7577 69.1918 64.0739 69.1557C53.4656 68.634 45.5475 66.5701 45.5475 64.0991C45.5475 61.6279 53.4656 59.5668 64.0739 59.037V67.1001C64.7677 67.1559 66.754 67.287 69.4991 67.287C72.7932 67.287 74.4426 67.1336 74.7397 67.103V59.0425C85.3254 59.5697 93.2262 61.6336 93.2262 64.0991C93.2262 66.5646 85.3281 68.6285 74.7397 69.1529L74.7495 69.1557ZM74.7495 58.2086V50.9931H89.5228V39.9902H49.3006V50.9931H64.0715V58.2058C52.0656 58.8222 43.0371 61.4802 43.0371 64.6652C43.0371 67.8505 52.0656 70.5056 64.0715 71.1247V94.2461H74.7471V71.1164C86.7254 70.5 95.739 67.8448 95.739 64.6624C95.739 61.4802 86.7329 58.825 74.7471 58.2058L74.7495 58.2086Z" fill="white"/>
</g>
<defs>
<clipPath id="clip0_844_8354">
<rect width="140" height="140" fill="white"/>
</clipPath>
</defs>
</svg>
