<svg width="140" height="140" viewBox="0 0 140 140" fill="none" xmlns="http://www.w3.org/2000/svg">
<g clip-path="url(#clip0_842_8275)">
<path opacity="0.2" d="M140 69.9996C140 108.66 108.66 140 70.0004 140C31.3401 140 0 108.66 0 69.9996C0 31.3399 31.3401 0 70.0004 0C108.66 0 140 31.3399 140 69.9996" fill="#FF0000"/>
<g clip-path="url(#clip1_842_8275)">
<path d="M70 25C45.1445 25 25 45.1445 25 70C25 94.8555 45.1445 115 70 115C94.8555 115 115 94.8555 115 70C115 45.1445 94.8555 25 70 25ZM36.25 70C36.25 62.7227 38.5879 55.9937 42.5219 50.4707L89.5258 97.4746C84.0098 101.412 77.2773 103.75 70 103.75C51.3848 103.75 36.25 88.6152 36.25 70ZM97.4746 89.5293L50.4707 42.5219C55.9902 38.5879 62.7227 36.25 70 36.25C88.6152 36.25 103.75 51.39 103.75 70C103.75 77.2773 101.412 84.0098 97.4746 89.5293Z" fill="#FF0000"/>
</g>
</g>
<defs>
<clipPath id="clip0_842_8275">
<rect width="140" height="140" fill="white"/>
</clipPath>
<clipPath id="clip1_842_8275">
<rect width="90" height="90" fill="white" transform="translate(25 25)"/>
</clipPath>
</defs>
</svg>
