<svg width="200" height="200" viewBox="0 0 200 200" fill="none" xmlns="http://www.w3.org/2000/svg">
<rect width="200" height="200" fill="black"/>
<path d="M90.4513 174.552C90.8739 175.143 91.0922 175.855 91.0732 176.582C91.0544 177.308 90.7994 178.009 90.3467 178.577C89.8941 179.145 89.2684 179.551 88.5649 179.732C87.8611 179.913 87.1175 179.859 86.4468 179.58C68.3062 171.887 47.1094 155.237 47.1094 126.573C47.1094 91.4505 82.1263 78.0521 90.6923 50.6828C93.5006 42.0925 94.8243 33.0864 94.6065 24.0513C94.5913 23.5317 94.7404 23.0204 95.0327 22.5905C95.3249 22.1606 95.7456 21.8339 96.2344 21.657C96.7234 21.4802 97.2556 21.4621 97.7554 21.6055C98.255 21.7489 98.6968 22.0464 99.0176 22.4555C109.005 34.8277 114.715 50.1032 115.291 65.9934C116.42 90.201 90.5118 109.652 81.9607 129.222C74.2678 147.122 83.1649 164.465 90.4513 174.552Z" fill="url(#paint0_linear_805_7804)"/>
<path d="M152.527 159.967C152.527 163.13 151.27 166.163 149.034 168.399C146.798 170.635 143.765 171.892 140.602 171.892C137.439 171.892 134.406 170.635 132.17 168.399C129.933 166.163 128.677 163.13 128.677 159.967C128.68 159.012 128.806 158.062 129.052 157.139L111.199 148.247C109.013 150.303 106.125 151.449 103.124 151.449C99.9614 151.449 96.9282 150.193 94.6917 147.957C92.4556 145.72 91.1992 142.687 91.1992 139.525C91.1992 136.362 92.4556 133.329 94.6917 131.093C96.9282 128.856 99.9614 127.6 103.124 127.6C106.125 127.601 109.013 128.746 111.199 130.802L129.052 121.91C128.806 120.987 128.68 120.037 128.677 119.082C128.677 116.724 129.376 114.418 130.687 112.457C131.997 110.496 133.859 108.968 136.038 108.065C138.218 107.162 140.615 106.926 142.928 107.386C145.241 107.846 147.366 108.982 149.034 110.65C150.702 112.318 151.837 114.443 152.297 116.756C152.758 119.069 152.521 121.466 151.619 123.645C150.716 125.825 149.188 127.687 147.227 128.997C145.266 130.308 142.96 131.007 140.602 131.007C137.601 131.006 134.713 129.861 132.527 127.804L114.674 136.697C115.173 138.549 115.173 140.5 114.674 142.353L132.527 151.245C134.713 149.188 137.601 148.043 140.602 148.042C143.765 148.042 146.798 149.299 149.034 151.535C151.27 153.771 152.527 156.804 152.527 159.967Z" fill="url(#paint1_linear_805_7804)"/>
<defs>
<linearGradient id="paint0_linear_805_7804" x1="81.2183" y1="21.5098" x2="81.2183" y2="179.837" gradientUnits="userSpaceOnUse">
<stop stop-color="#2DD4BF"/>
<stop offset="1" stop-color="#7217F6" stop-opacity="0.8"/>
</linearGradient>
<linearGradient id="paint1_linear_805_7804" x1="121.863" y1="107.157" x2="121.863" y2="171.892" gradientUnits="userSpaceOnUse">
<stop stop-color="#2DD4BF"/>
<stop offset="1" stop-color="#7217F6" stop-opacity="0.8"/>
</linearGradient>
</defs>
</svg>
