<svg width="24" height="24" viewBox="0 0 24 24" fill="none" xmlns="http://www.w3.org/2000/svg">
<path fill-rule="evenodd" clip-rule="evenodd" d="M11.504 1.65139C12.5034 1.62792 13.544 1.8821 14.3701 2.46116L20.3016 6.62279L20.3027 6.62355C20.9023 7.04236 21.4056 7.68626 21.7579 8.36194C22.1103 9.03812 22.3504 9.82077 22.3504 10.5544V17.5528C22.3504 20.1855 20.2023 22.3499 17.5588 22.3499H6.44199C3.7973 22.3499 1.65039 20.1843 1.65039 17.5431V10.4198C1.65039 9.73136 1.86738 8.98781 2.18529 8.33898C2.50323 7.69009 2.95836 7.0619 3.50381 6.6369L8.67821 2.59937C9.47596 1.97805 10.5046 1.67485 11.504 1.65139ZM9.60044 3.78237L4.42657 7.81949C4.10825 8.06741 3.78065 8.49208 3.53229 8.99897C3.2838 9.50612 3.15039 10.0219 3.15039 10.4198V17.5431C3.15039 19.3625 4.63228 20.8499 6.44199 20.8499H17.5588C19.3697 20.8499 20.8504 19.3613 20.8504 17.5528V10.5544C20.8504 10.1248 20.7016 9.58078 20.4277 9.05531C20.1538 8.52976 19.7935 8.09735 19.4432 7.85283L19.4416 7.85177L13.5091 3.68945V3.68945C12.9912 3.32654 12.2797 3.13359 11.5392 3.15097C10.7986 3.16836 10.0987 3.39431 9.60044 3.78237Z" fill="white"/>
<mask id="path-2-outside-1_4353_67644" maskUnits="userSpaceOnUse" x="11" y="13.3999" width="2" height="6" fill="black">
<rect fill="white" x="11" y="13.3999" width="2" height="6"/>
<path d="M12 17.9999V14.3999Z"/>
</mask>
<path d="M11.25 17.9999C11.25 18.4141 11.5858 18.7499 12 18.7499C12.4142 18.7499 12.75 18.4141 12.75 17.9999H11.25ZM12.75 14.3999C12.75 13.9857 12.4142 13.6499 12 13.6499C11.5858 13.6499 11.25 13.9857 11.25 14.3999H12.75ZM12.75 17.9999V14.3999H11.25V17.9999H12.75Z" fill="white" mask="url(#path-2-outside-1_4353_67644)"/>
</svg>
