<svg width="0" height="0" class="hidden">
  <symbol fill="none" xmlns="http://www.w3.org/2000/svg" viewBox="0 0 24 24" id="myloans">
    <path fill-rule="evenodd" clip-rule="evenodd" d="M1.77002 11.6807C1.75694 11.6258 1.75 11.5686 1.75 11.5101V7.84011C1.75 6.35011 2.68001 4.99005 4.07001 4.47005L12.01 1.47005C12.83 1.17005 13.75 1.28011 14.46 1.78011C15.17 2.28011 15.6 3.09009 15.6 3.95009V6.98999H17.76C20.25 6.98999 22.27 9.01 22.27 11.5V12.3672C22.8855 12.6502 23.3 13.261 23.3 13.9699V16.03C23.3 16.7436 22.88 17.3578 22.27 17.6383V18.22C22.25 20.73 20.23 22.75 17.74 22.75H7.90907C7.06967 23.3988 6.05156 23.75 5 23.75C2.38 23.75 0.25 21.62 0.25 19C0.25 17.6559 0.800886 16.405 1.77002 15.5127V11.6807ZM7.15001 21.43C7.53143 21.0922 7.82675 20.6742 8.01655 20.2132C8.16916 19.8331 8.25 19.4226 8.25 19C8.25 17.21 6.79 15.75 5 15.75C4.26 15.75 3.56 16 2.97 16.47C2.2 17.08 1.75 18.01 1.75 19C1.75 20.79 3.21 22.25 5 22.25C5.7521 22.25 6.48559 21.9804 7.08396 21.4949C7.10441 21.4723 7.12644 21.4506 7.15001 21.43ZM17.74 21.25H9.18015L9.19689 21.2187C9.4665 20.7139 9.643 20.1551 9.71427 19.5789C9.73193 19.4362 9.74312 19.2923 9.74768 19.148C9.74923 19.0987 9.75002 19.0494 9.75002 19C9.75002 17.209 8.75472 15.647 7.28798 14.8378C6.60902 14.4633 5.82905 14.25 5.00002 14.25C4.40128 14.25 3.80569 14.3658 3.25002 14.5853V11.51C3.25002 9.85001 4.60001 8.5 6.26001 8.5H14.839L14.85 8.50008L14.861 8.5H17.74C19.4 8.5 20.75 9.85001 20.75 11.51V12.2H19.47C18.72 12.2 18.02 12.4899 17.51 13.0099C16.961 13.5497 16.6632 14.2737 16.6778 15.0286C16.6788 15.0845 16.6816 15.1404 16.6861 15.1965L16.6886 15.2256L16.69 15.2399C16.7179 15.5755 16.8089 15.8937 16.9511 16.1845C17.0378 16.3615 17.1434 16.5284 17.2654 16.6828C17.8024 17.3625 18.6563 17.8 19.6 17.8H20.75V18.24C20.75 19.9 19.4 21.25 17.74 21.25ZM21.52 16.28C21.5574 16.28 21.5941 16.2828 21.6301 16.2883C21.7301 16.2547 21.81 16.1523 21.81 16.03V13.9699C21.81 13.8199 21.69 13.71 21.53 13.7H19.48C19.2782 13.7 19.0865 13.7431 18.9162 13.8257C18.7989 13.8852 18.6922 13.9638 18.6 14.06L18.59 14.07C18.31 14.34 18.18 14.71 18.21 15.09C18.27 15.75 18.9 16.28 19.62 16.28H21.52ZM14.1 6.98999V3.95009C14.1 3.57009 13.92 3.23009 13.61 3.01009C13.29 2.79009 12.9 2.74008 12.54 2.87008L4.60001 5.87008C3.78001 6.18008 3.25 6.95011 3.25 7.84011V8.16C4.05076 7.43307 5.11384 6.98999 6.28001 6.98999H14.1ZM7 12.75H14C14.41 12.75 14.75 12.41 14.75 12C14.75 11.59 14.41 11.25 14 11.25H7C6.59 11.25 6.25 11.59 6.25 12C6.25 12.41 6.59 12.75 7 12.75ZM3.35988 20.39C3.49988 20.62 3.74988 20.75 3.99988 20.75C4.12988 20.75 4.26988 20.72 4.39988 20.64L5.64988 19.89C5.86988 19.76 6.00988 19.51 6.00988 19.25V17.75C6.00988 17.34 5.66988 17 5.25988 17C4.84988 17 4.50988 17.34 4.50988 17.75V18.83L3.61988 19.36C3.25988 19.57 3.14988 20.03 3.35988 20.39Z" fill="currentColor"></path>
  </symbol>
  <symbol fill="none" xmlns="http://www.w3.org/2000/svg" viewBox="0 0 24 24" id="synaas">
    <path fill-rule="evenodd" clip-rule="evenodd" d="M11.3792 3.30149L11.3782 3.30204L4.5452 6.85704C4.42462 6.91988 4.35039 7.0436 4.35039 7.1999C4.35039 7.3562 4.42447 7.47985 4.54505 7.54269L11.3782 11.0978L11.3792 11.0983C11.772 11.3004 12.2289 11.3004 12.6216 11.0983L12.6226 11.0978L19.4556 7.54277C19.5763 7.47995 19.6504 7.35627 19.6504 7.1999C19.6504 7.04354 19.5763 6.91985 19.4556 6.85704L12.6226 3.30204L12.6216 3.30151C12.2289 3.09937 11.772 3.09937 11.3792 3.30149ZM10.6906 1.9689C11.5153 1.54357 12.4855 1.54357 13.3102 1.9689L13.3125 1.97013L20.148 5.52644C21.4843 6.22204 21.4845 8.17768 20.1482 8.87329L13.3125 12.4297L13.3102 12.4309C12.4855 12.8562 11.5153 12.8562 10.6906 12.4309L10.6882 12.4297L3.85273 8.87337C2.51648 8.17776 2.51633 6.22212 3.85258 5.52652L10.6906 1.9689Z" fill="currentColor"></path>
    <path fill-rule="evenodd" clip-rule="evenodd" d="M3.30769 11.594C3.22468 11.648 3.15039 11.7538 3.15039 11.9126V17.647C3.15039 18.2245 3.46205 18.7358 3.91638 18.9807L3.91772 18.9814L9.63061 22.0171C9.72303 22.0662 9.81265 22.0581 9.8931 22.0058C9.9761 21.9518 10.0504 21.846 10.0504 21.6872V15.9528C10.0504 15.3753 9.73876 14.864 9.28445 14.6191L3.57017 11.5827C3.47781 11.5337 3.38808 11.5417 3.30769 11.594ZM1.65039 11.9126C1.65039 10.5838 3.01496 9.59012 4.27313 10.2576L9.99331 13.2972C10.9556 13.8144 11.5504 14.8466 11.5504 15.9528V21.6872C11.5504 23.016 10.1858 24.0097 8.92765 23.3422L3.21066 20.3043L3.20748 20.3026C2.24521 19.7854 1.65039 18.7532 1.65039 17.647V11.9126Z" fill="currentColor"></path>
    <path fill-rule="evenodd" clip-rule="evenodd" d="M19.7277 10.2576C20.9858 9.59012 22.3504 10.5838 22.3504 11.9126V17.647C22.3504 18.7532 21.7556 19.7854 20.7933 20.3026L20.7901 20.3044L15.0736 23.342C13.8154 24.0094 12.4504 23.016 12.4504 21.6872V15.9528C12.4504 14.8466 13.0452 13.8144 14.0075 13.2972L14.0107 13.2954L19.7277 10.2576ZM20.4306 11.5827L14.7163 14.6191C14.262 14.864 13.9504 15.3753 13.9504 15.9528V21.6872C13.9504 21.846 14.0247 21.9518 14.1077 22.0058C14.1881 22.0581 14.2777 22.0662 14.3702 22.0171L20.0831 18.9814L20.0844 18.9807C20.5387 18.7358 20.8504 18.2245 20.8504 17.647V11.9126C20.8504 11.7538 20.7761 11.648 20.6931 11.594C20.6127 11.5417 20.523 11.5337 20.4306 11.5827Z" fill="currentColor"></path>
  </symbol>
  <symbol fill="none" xmlns="http://www.w3.org/2000/svg" viewBox="0 0 24 24" id="synbridge">
    <path fill-rule="evenodd" clip-rule="evenodd" d="M9.70999 7.13C9.70999 3.88257 12.3426 1.25 15.59 1.25C18.8374 1.25 21.47 3.88257 21.47 7.13C21.47 10.3774 18.8374 13.01 15.59 13.01C13.9644 13.01 12.4928 12.3503 11.4284 11.284L9.52767 13.0043C9.94643 13.6183 10.1913 14.3604 10.1913 15.1597C10.1913 15.516 10.1426 15.8609 10.0516 16.1882L12.7037 17.5478C13.3019 16.6906 14.2955 16.1297 15.4202 16.1297C17.2482 16.1297 18.7302 17.6116 18.7302 19.4397C18.7302 21.2677 17.2482 22.7497 15.4202 22.7497C13.5921 22.7497 12.1102 21.2677 12.1102 19.4397C12.1102 19.2725 12.1225 19.1083 12.1465 18.9478L9.37306 17.5259C8.67179 18.4173 7.58336 18.9897 6.36124 18.9897C4.24598 18.9897 2.53125 17.2749 2.53125 15.1597C2.53125 13.0444 4.24598 11.3297 6.36124 11.3297C7.13394 11.3297 7.8532 11.5585 8.45495 11.9521L10.5097 10.0924C10.0013 9.2225 9.70999 8.21027 9.70999 7.13ZM15.59 2.75C13.171 2.75 11.21 4.711 11.21 7.13C11.21 9.54901 13.171 11.51 15.59 11.51C18.009 11.51 19.97 9.54901 19.97 7.13C19.97 4.711 18.009 2.75 15.59 2.75ZM6.36124 12.8297C5.07442 12.8297 4.03125 13.8729 4.03125 15.1597C4.03125 16.4465 5.07442 17.4897 6.36124 17.4897C7.64807 17.4897 8.69125 16.4465 8.69125 15.1597C8.69125 13.8729 7.64807 12.8297 6.36124 12.8297ZM13.6102 19.4397C13.6102 18.44 14.4205 17.6297 15.4202 17.6297C16.4198 17.6297 17.2302 18.44 17.2302 19.4397C17.2302 20.4393 16.4198 21.2497 15.4202 21.2497C14.4205 21.2497 13.6102 20.4393 13.6102 19.4397Z" fill="currentColor"></path>
  </symbol>
  <symbol fill="none" xmlns="http://www.w3.org/2000/svg" viewBox="0 0 24 24" id="synlend">
    <path d="M14.2852 11.9322L13.0102 12.2313L14.1601 12.858C14.5073 13.0472 14.7035 13.2529 14.7926 13.479C14.8804 13.7019 14.899 14.0332 14.7065 14.5481C14.4741 15.1648 14.1513 15.4376 13.769 15.561C13.3449 15.6978 12.7729 15.6755 12.0077 15.522L11.5783 15.4359L11.1065 15.3133C10.872 15.2524 10.6327 15.1902 10.39 15.1206L9.90472 14.9814L9.90202 14.9911L9.47923 14.8642L9.3355 15.3431C9.47923 14.8642 9.47915 14.8642 9.47906 14.8642L9.47888 14.8641L9.47853 14.864L9.4778 14.8638L9.47623 14.8633L9.47248 14.8623L9.46132 14.8591L9.41564 14.8464C9.372 14.8344 9.29721 14.8141 9.17056 14.7803C8.98251 14.7302 8.6789 14.6501 8.19105 14.5227L8.26139 14.3697C8.26861 14.3716 8.2757 14.3735 8.28264 14.3754C8.40838 14.409 8.55181 14.443 8.69236 14.4511C8.83977 14.4595 9.02372 14.442 9.19966 14.3335C9.37432 14.2258 9.47766 14.0675 9.5427 13.9191L9.55711 13.8862L9.56667 13.8516L10.747 9.58005L10.7589 9.53675L10.763 9.49201C10.7802 9.3019 10.7609 9.09829 10.6591 8.90812C10.5564 8.71626 10.4004 8.59526 10.2502 8.51564C10.1085 8.44049 9.9499 8.39061 9.80344 8.35108L9.81483 8.30983C9.85161 8.31961 9.8874 8.32912 9.92223 8.33837C10.6034 8.51941 10.921 8.60381 11.2037 8.6678L11.669 8.7731L11.6705 8.76774L12.1306 8.87539L12.1655 8.88356C12.4021 8.93889 12.631 8.99242 12.8525 9.04997L13.2829 9.1618L13.2824 9.16343L13.7197 9.31976C14.2716 9.51705 14.6651 9.73868 14.8981 9.99557C15.1058 10.2246 15.2109 10.5068 15.1329 10.9361L15.1325 10.9382C15.0713 11.283 14.9518 11.501 14.8184 11.6425C14.6852 11.7839 14.5094 11.8795 14.2852 11.9322ZM12.0802 9.02391L11.6036 8.90008L11.4725 9.37467L10.9474 11.2752L10.8152 11.7537L10.8121 11.7646L10.684 12.2282L10.1058 14.3208L9.97058 14.8102L10.462 14.9379C10.5041 14.9488 10.5563 14.9634 10.617 14.9802C10.9483 15.0723 11.5307 15.2342 12.0817 15.2627C12.4113 15.2797 12.7865 15.2541 13.1213 15.1025C13.4798 14.9401 13.7642 14.644 13.8875 14.1977C14.0123 13.746 13.926 13.3412 13.6935 13.0143C13.4778 12.7112 13.1595 12.5062 12.863 12.3635C12.6488 12.2604 12.4148 12.1765 12.1916 12.1083C12.3565 12.1373 12.5293 12.1592 12.6991 12.1659C12.9895 12.1774 13.3267 12.1489 13.6308 12.0005C13.9569 11.8413 14.209 11.5606 14.3217 11.1527C14.4359 10.7394 14.3708 10.3632 14.166 10.0537C13.9756 9.76605 13.6912 9.57567 13.4308 9.44636C13.0134 9.23911 12.5054 9.12256 12.2254 9.05833C12.1655 9.04458 12.1161 9.03324 12.0802 9.02391ZM12 22C6.48405 22 2 17.516 2 12C2 6.48405 6.48405 2 12 2C13.6592 2 15.224 2.40534 16.6019 3.12223C16.4928 3.23834 16.3899 3.36039 16.2937 3.48784C15.0023 2.83384 13.5429 2.46512 12 2.46512C6.74246 2.46512 2.46512 6.74246 2.46512 12C2.46512 17.2575 6.74246 21.5349 12 21.5349C17.2575 21.5349 21.5349 17.2575 21.5349 12C21.5349 11.4068 21.4804 10.8257 21.376 10.2615C21.5257 10.2047 21.6716 10.1401 21.813 10.068C21.9356 10.6929 22 11.3389 22 12C22 17.516 17.516 22 12 22ZM21.2674 6.13953C21.2674 6.94227 20.6167 7.59302 19.814 7.59302C19.0112 7.59302 18.3605 6.94227 18.3605 6.13953C18.3605 5.3368 19.0112 4.68605 19.814 4.68605C20.6167 4.68605 21.2674 5.3368 21.2674 6.13953Z" fill="currentColor" stroke="currentColor"></path>
  </symbol>
  <symbol fill="none" xmlns="http://www.w3.org/2000/svg" viewBox="0 0 24 24" id="synmarg">
    <path fill-rule="evenodd" clip-rule="evenodd" d="M8.9707 1.25C6.39673 1.25 4.39984 1.7602 3.06537 3.09467C1.7309 4.42914 1.2207 6.42603 1.2207 9V15C1.2207 17.574 1.7309 19.5709 3.06537 20.9053C4.39984 22.2398 6.39673 22.75 8.9707 22.75H14.9707C17.5447 22.75 19.5416 22.2398 20.876 20.9053C22.2105 19.5709 22.7207 17.574 22.7207 15V14.1328C22.7273 14.0928 22.7307 14.0518 22.7307 14.01C22.7307 13.9682 22.7273 13.9272 22.7207 13.8872V9C22.7207 6.42603 22.2105 4.42914 20.876 3.09467C19.5416 1.7602 17.5447 1.25 14.9707 1.25H8.9707ZM21.2207 13.26V9C21.2207 6.57397 20.7309 5.07086 19.8154 4.15533C18.8998 3.2398 17.3967 2.75 14.9707 2.75H8.9707C6.54468 2.75 5.04156 3.2398 4.12603 4.15533C3.2105 5.07086 2.7207 6.57397 2.7207 9V11.9475L7.9707 11.93C8.52645 11.93 9.06811 12.1366 9.50325 12.432C9.93856 12.7276 10.3305 13.155 10.5371 13.6715L10.5381 13.674L11.4452 15.9657L13.5028 10.7454C13.6472 10.378 13.9775 9.86997 14.5935 9.8373C15.2073 9.80475 15.5904 10.2724 15.774 10.6199L16.8146 12.5912C16.8909 12.7363 17.0566 12.9122 17.2918 13.054C17.5271 13.196 17.7594 13.26 17.9207 13.26H21.2207ZM2.7207 13.4475V15C2.7207 17.426 3.2105 18.9291 4.12603 19.8447C5.04156 20.7602 6.54468 21.25 8.9707 21.25H14.9707C17.3967 21.25 18.8998 20.7602 19.8154 19.8447C20.7309 18.9291 21.2207 17.426 21.2207 15V14.76H17.9207C17.422 14.76 16.9243 14.5841 16.5171 14.3385C16.11 14.0929 15.7205 13.7334 15.4868 13.2888L14.7 11.7985L12.6085 17.105L12.6071 17.1085C12.5201 17.3258 12.4001 17.5436 12.2298 17.7187C12.0561 17.8971 11.7902 18.0675 11.4457 18.0675C11.1012 18.0675 10.8353 17.8971 10.6616 17.7187C10.4913 17.5436 10.3713 17.3258 10.2843 17.1085L10.2833 17.106L9.14435 14.2285L9.14396 14.2276C9.07035 14.0443 8.90242 13.8371 8.66066 13.673C8.41874 13.5087 8.16587 13.4303 7.97176 13.43L7.9707 13.43L2.7207 13.4475Z" fill="currentColor"></path>
  </symbol>
  <symbol fill="none" xmlns="http://www.w3.org/2000/svg" viewBox="0 0 24 24" id="syntokenomics">
    <path fill-rule="evenodd" clip-rule="evenodd" d="M12.4716 2.37618C13.4378 1.68083 14.8227 1.75201 16.4904 2.24011C18.945 2.96206 21.0373 5.05366 21.7592 7.50829C22.2473 9.17599 22.3188 10.5619 21.6234 11.528C20.918 12.5082 19.6496 12.7499 18.3197 12.7499H14.9997C13.8833 12.7499 12.8883 12.4693 12.1925 11.6969C11.5126 10.9423 11.2497 9.86042 11.2497 8.55992V5.67992C11.2497 4.35003 11.4914 3.08164 12.4716 2.37618ZM13.3478 3.59365C13.008 3.8382 12.7497 4.4098 12.7497 5.67992V8.55992C12.7497 9.69942 12.9868 10.3376 13.3069 10.6929C13.6111 11.0305 14.1161 11.2499 14.9997 11.2499H18.3197C19.5898 11.2499 20.1614 10.9916 20.406 10.6518C20.6606 10.298 20.7917 9.54314 20.3201 7.93139C19.7421 5.96627 18.0337 4.25779 16.0686 3.6796C14.4566 3.20785 13.7016 3.33903 13.3478 3.59365Z" fill="currentColor"></path>
    <path fill-rule="evenodd" clip-rule="evenodd" d="M9.99457 3.86007C10.0773 4.26593 9.8154 4.66204 9.40954 4.74479C5.18079 5.60706 2.11661 9.68013 2.86 14.2997C3.42837 17.7717 6.22888 20.5709 9.69887 21.1294L9.6999 21.1296C14.3372 21.8826 18.4109 18.8014 19.2644 14.5522C19.346 14.1461 19.7413 13.883 20.1474 13.9646C20.5535 14.0462 20.8166 14.4415 20.735 14.8476C19.7285 19.8584 14.9222 23.4972 9.45949 22.6102C5.35025 21.9484 2.05143 18.6483 1.37953 14.541L1.37923 14.5392C0.503207 9.09914 4.11889 4.29272 9.10985 3.27504C9.51571 3.19228 9.91182 3.45421 9.99457 3.86007Z" fill="currentColor"></path>
  </symbol>
  <symbol fill="none" xmlns="http://www.w3.org/2000/svg" viewBox="0 0 24 24" id="synvault">
    <path fill-rule="evenodd" clip-rule="evenodd" d="M9.12039 1.6499C6.64642 1.6499 4.71953 2.1401 3.43006 3.42957C2.14059 4.71904 1.65039 6.64593 1.65039 9.1199V14.8799C1.65039 17.3539 2.14059 19.2808 3.43006 20.5702C4.71953 21.8597 6.64642 22.3499 9.12039 22.3499H14.8804C17.3544 22.3499 19.2813 21.8597 20.5707 20.5702C21.8602 19.2808 22.3504 17.3539 22.3504 14.8799V9.1199C22.3504 6.64593 21.8602 4.71904 20.5707 3.42957C19.2813 2.1401 17.3544 1.6499 14.8804 1.6499H9.12039ZM3.15039 9.1199C3.15039 6.79387 3.62019 5.36076 4.49072 4.49023C5.36125 3.6197 6.79436 3.1499 9.12039 3.1499H14.8804C17.2064 3.1499 18.6395 3.6197 19.5101 4.49023C20.3806 5.36076 20.8504 6.79387 20.8504 9.1199V10.0499H15.0298C15.0221 10.0172 15.0138 9.98453 15.0049 9.95183C14.7254 8.89201 13.8721 8.03931 12.812 7.76056C11.0032 7.28039 9.31989 8.41172 8.93331 10.0499H3.15039V9.1199ZM3.15039 11.5499V14.8799C3.15039 17.2059 3.62019 18.639 4.49072 19.5096C5.36125 20.3801 6.79436 20.8499 9.12039 20.8499H14.8804C17.2064 20.8499 18.6395 20.3801 19.5101 19.5096C20.3806 18.639 20.8504 17.2059 20.8504 14.8799V11.5499H15.0081C14.8427 12.199 14.4725 12.7585 13.9804 13.1674V14.7657C13.9804 15.8699 13.0846 16.7657 11.9804 16.7657C10.8762 16.7657 9.98041 15.8699 9.98041 14.7657V13.1674C9.48834 12.7585 9.11816 12.199 8.95271 11.5499H3.15039ZM10.3504 10.7657C10.3504 9.73114 11.3306 8.91886 12.4277 9.21052L12.43 9.21111C12.9682 9.35238 13.4137 9.79792 13.5549 10.3361L13.5568 10.343C13.6168 10.563 13.6241 10.7846 13.59 10.9963L13.5888 11.0037L13.5877 11.0111C13.5206 11.4875 13.2377 11.8984 12.8349 12.1485L12.4804 12.3685V14.7657C12.4804 15.0415 12.2562 15.2657 11.9804 15.2657C11.7046 15.2657 11.4804 15.0415 11.4804 14.7657V12.3685L11.1259 12.1485C10.7231 11.8984 10.4402 11.4875 10.3731 11.0111L10.371 10.9963L10.3683 10.9815C10.3572 10.9206 10.3504 10.8459 10.3504 10.7657Z" fill="currentColor"></path>
  </symbol>
  <symbol fill="none" xmlns="http://www.w3.org/2000/svg" viewBox="0 0 24 24" id="dashboard">
    <path fill-rule="evenodd" clip-rule="evenodd" d="M11.504 1.65139C12.5034 1.62792 13.544 1.8821 14.3701 2.46116L20.3016 6.62279L20.3027 6.62355C20.9023 7.04236 21.4056 7.68626 21.7579 8.36194C22.1103 9.03812 22.3504 9.82077 22.3504 10.5544V17.5528C22.3504 20.1855 20.2023 22.3499 17.5588 22.3499H6.44199C3.7973 22.3499 1.65039 20.1843 1.65039 17.5431V10.4198C1.65039 9.73136 1.86738 8.98781 2.18529 8.33898C2.50323 7.69009 2.95836 7.0619 3.50381 6.6369L8.67821 2.59937C9.47596 1.97805 10.5046 1.67485 11.504 1.65139ZM9.60044 3.78237L4.42657 7.81949C4.10825 8.06741 3.78065 8.49208 3.53229 8.99897C3.2838 9.50612 3.15039 10.0219 3.15039 10.4198V17.5431C3.15039 19.3625 4.63228 20.8499 6.44199 20.8499H17.5588C19.3697 20.8499 20.8504 19.3613 20.8504 17.5528V10.5544C20.8504 10.1248 20.7016 9.58078 20.4277 9.05531C20.1538 8.52976 19.7935 8.09735 19.4432 7.85283L19.4416 7.85177L13.5091 3.68945V3.68945C12.9912 3.32654 12.2797 3.13359 11.5392 3.15097C10.7986 3.16836 10.0987 3.39431 9.60044 3.78237Z" fill="currentColor"></path>
    <mask id="path-2-outside-1_4353_67644" maskUnits="userSpaceOnUse" x="11" y="13.3999" width="2" height="6" fill="black">
      <rect fill="currentColor" x="11" y="13.3999" width="2" height="6"></rect>
      <path d="M12 17.9999V14.3999Z"></path>
    </mask>
    <path d="M11.25 17.9999C11.25 18.4141 11.5858 18.7499 12 18.7499C12.4142 18.7499 12.75 18.4141 12.75 17.9999H11.25ZM12.75 14.3999C12.75 13.9857 12.4142 13.6499 12 13.6499C11.5858 13.6499 11.25 13.9857 11.25 14.3999H12.75ZM12.75 17.9999V14.3999H11.25V17.9999H12.75Z" fill="currentColor" mask="url(#path-2-outside-1_4353_67644)"></path>
  </symbol>
  <symbol fill="none" xmlns="http://www.w3.org/2000/svg" viewBox="0 0 24 24" id="lend">
    <path d="M8.74332 16C8.55438 16 8.36545 15.9304 8.21628 15.7813C7.92791 15.493 7.92791 15.0158 8.21628 14.7276L14.7296 8.21622C15.018 7.92793 15.4953 7.92793 15.7837 8.21622C16.0721 8.50451 16.0721 8.98167 15.7837 9.26996L9.27035 15.7813C9.12119 15.9304 8.93226 16 8.74332 16Z" fill="currentColor"></path>
    <path d="M8.98001 10.96C7.89001 10.96 7 10.07 7 8.98001C7 7.89001 7.89001 7 8.98001 7C10.07 7 10.96 7.89001 10.96 8.98001C10.96 10.07 10.07 10.96 8.98001 10.96ZM8.98001 8.51001C8.72001 8.51001 8.5 8.72002 8.5 8.99002C8.5 9.26002 8.71001 9.47 8.98001 9.47C9.25001 9.47 9.45999 9.26002 9.45999 8.99002C9.45999 8.72002 9.24001 8.51001 8.98001 8.51001Z" fill="currentColor"></path>
    <path d="M14.98 16.96C13.89 16.96 13 16.07 13 14.98C13 13.89 13.89 13 14.98 13C16.07 13 16.96 13.89 16.96 14.98C16.96 16.07 16.07 16.96 14.98 16.96ZM14.98 14.51C14.72 14.51 14.5 14.72 14.5 14.99C14.5 15.26 14.71 15.47 14.98 15.47C15.25 15.47 15.46 15.26 15.46 14.99C15.46 14.72 15.25 14.51 14.98 14.51Z" fill="currentColor"></path>
    <path fill-rule="evenodd" clip-rule="evenodd" d="M8.50007 22.1657C9.59755 22.5443 10.7751 22.75 12 22.75C17.93 22.75 22.75 17.93 22.75 12C22.75 6.07 17.93 1.25 12 1.25C6.07 1.25 1.25 6.07 1.25 12C1.25 13.2249 1.45566 14.4024 1.83427 15.4999C2.23429 15.1885 2.68545 14.9396 3.17304 14.768C2.89821 13.8937 2.75 12.9638 2.75 12C2.75 6.9 6.9 2.75 12 2.75C17.1 2.75 21.25 6.9 21.25 12C21.25 17.1 17.1 21.25 12 21.25C11.0362 21.25 10.1063 21.1018 9.23196 20.827C9.06041 21.3145 8.81154 21.7657 8.50007 22.1657Z" fill="currentColor"></path>
    <path d="M4.75 24C2.13 24 0 21.87 0 19.25C0 17.79 0.649999 16.44 1.78 15.54C2.62 14.87 3.68 14.5 4.75 14.5C7.37 14.5 9.5 16.63 9.5 19.25C9.5 20.61 8.91 21.91 7.89 22.81C7.01 23.58 5.9 24 4.75 24ZM4.75 16C4.01 16 3.31 16.25 2.72 16.72C1.95 17.33 1.5 18.26 1.5 19.25C1.5 21.04 2.96 22.5 4.75 22.5C5.53 22.5 6.28999 22.21 6.89999 21.69C7.59999 21.07 8 20.19 8 19.25C8 17.46 6.54 16 4.75 16Z" fill="currentColor"></path>
    <path d="M3.74988 21C3.49988 21 3.24988 20.87 3.10988 20.64C2.89988 20.28 3.00988 19.82 3.36988 19.61L4.25988 19.08V18C4.25988 17.59 4.59988 17.25 5.00988 17.25C5.41988 17.25 5.75988 17.59 5.75988 18V19.5C5.75988 19.76 5.61988 20.01 5.39988 20.14L4.14988 20.89C4.01988 20.97 3.87988 21 3.74988 21Z" fill="currentColor"></path>
  </symbol>
</svg>