<svg width="24" height="24" viewBox="0 0 24 24" fill="none" xmlns="http://www.w3.org/2000/svg">
<path d="M8.74332 16C8.55438 16 8.36545 15.9304 8.21628 15.7813C7.92791 15.493 7.92791 15.0158 8.21628 14.7276L14.7296 8.21622C15.018 7.92793 15.4953 7.92793 15.7837 8.21622C16.0721 8.50451 16.0721 8.98167 15.7837 9.26996L9.27035 15.7813C9.12119 15.9304 8.93226 16 8.74332 16Z" fill="white"/>
<path d="M8.98001 10.96C7.89001 10.96 7 10.07 7 8.98001C7 7.89001 7.89001 7 8.98001 7C10.07 7 10.96 7.89001 10.96 8.98001C10.96 10.07 10.07 10.96 8.98001 10.96ZM8.98001 8.51001C8.72001 8.51001 8.5 8.72002 8.5 8.99002C8.5 9.26002 8.71001 9.47 8.98001 9.47C9.25001 9.47 9.45999 9.26002 9.45999 8.99002C9.45999 8.72002 9.24001 8.51001 8.98001 8.51001Z" fill="white"/>
<path d="M14.98 16.96C13.89 16.96 13 16.07 13 14.98C13 13.89 13.89 13 14.98 13C16.07 13 16.96 13.89 16.96 14.98C16.96 16.07 16.07 16.96 14.98 16.96ZM14.98 14.51C14.72 14.51 14.5 14.72 14.5 14.99C14.5 15.26 14.71 15.47 14.98 15.47C15.25 15.47 15.46 15.26 15.46 14.99C15.46 14.72 15.25 14.51 14.98 14.51Z" fill="white"/>
<path fill-rule="evenodd" clip-rule="evenodd" d="M8.50007 22.1657C9.59755 22.5443 10.7751 22.75 12 22.75C17.93 22.75 22.75 17.93 22.75 12C22.75 6.07 17.93 1.25 12 1.25C6.07 1.25 1.25 6.07 1.25 12C1.25 13.2249 1.45566 14.4024 1.83427 15.4999C2.23429 15.1885 2.68545 14.9396 3.17304 14.768C2.89821 13.8937 2.75 12.9638 2.75 12C2.75 6.9 6.9 2.75 12 2.75C17.1 2.75 21.25 6.9 21.25 12C21.25 17.1 17.1 21.25 12 21.25C11.0362 21.25 10.1063 21.1018 9.23196 20.827C9.06041 21.3145 8.81154 21.7657 8.50007 22.1657Z" fill="white"/>
<path d="M4.75 24C2.13 24 0 21.87 0 19.25C0 17.79 0.649999 16.44 1.78 15.54C2.62 14.87 3.68 14.5 4.75 14.5C7.37 14.5 9.5 16.63 9.5 19.25C9.5 20.61 8.91 21.91 7.89 22.81C7.01 23.58 5.9 24 4.75 24ZM4.75 16C4.01 16 3.31 16.25 2.72 16.72C1.95 17.33 1.5 18.26 1.5 19.25C1.5 21.04 2.96 22.5 4.75 22.5C5.53 22.5 6.28999 22.21 6.89999 21.69C7.59999 21.07 8 20.19 8 19.25C8 17.46 6.54 16 4.75 16Z" fill="white"/>
<path d="M3.74988 21C3.49988 21 3.24988 20.87 3.10988 20.64C2.89988 20.28 3.00988 19.82 3.36988 19.61L4.25988 19.08V18C4.25988 17.59 4.59988 17.25 5.00988 17.25C5.41988 17.25 5.75988 17.59 5.75988 18V19.5C5.75988 19.76 5.61988 20.01 5.39988 20.14L4.14988 20.89C4.01988 20.97 3.87988 21 3.74988 21Z" fill="white"/>
</svg>
