<svg width="24" height="24" viewBox="0 0 24 24" fill="none" xmlns="http://www.w3.org/2000/svg">
<path fill-rule="evenodd" clip-rule="evenodd" d="M1.77002 11.6807C1.75694 11.6258 1.75 11.5686 1.75 11.5101V7.84011C1.75 6.35011 2.68001 4.99005 4.07001 4.47005L12.01 1.47005C12.83 1.17005 13.75 1.28011 14.46 1.78011C15.17 2.28011 15.6 3.09009 15.6 3.95009V6.98999H17.76C20.25 6.98999 22.27 9.01 22.27 11.5V12.3672C22.8855 12.6502 23.3 13.261 23.3 13.9699V16.03C23.3 16.7436 22.88 17.3578 22.27 17.6383V18.22C22.25 20.73 20.23 22.75 17.74 22.75H7.90907C7.06967 23.3988 6.05156 23.75 5 23.75C2.38 23.75 0.25 21.62 0.25 19C0.25 17.6559 0.800886 16.405 1.77002 15.5127V11.6807ZM7.15001 21.43C7.53143 21.0922 7.82675 20.6742 8.01655 20.2132C8.16916 19.8331 8.25 19.4226 8.25 19C8.25 17.21 6.79 15.75 5 15.75C4.26 15.75 3.56 16 2.97 16.47C2.2 17.08 1.75 18.01 1.75 19C1.75 20.79 3.21 22.25 5 22.25C5.7521 22.25 6.48559 21.9804 7.08396 21.4949C7.10441 21.4723 7.12644 21.4506 7.15001 21.43ZM17.74 21.25H9.18015L9.19689 21.2187C9.4665 20.7139 9.643 20.1551 9.71427 19.5789C9.73193 19.4362 9.74312 19.2923 9.74768 19.148C9.74923 19.0987 9.75002 19.0494 9.75002 19C9.75002 17.209 8.75472 15.647 7.28798 14.8378C6.60902 14.4633 5.82905 14.25 5.00002 14.25C4.40128 14.25 3.80569 14.3658 3.25002 14.5853V11.51C3.25002 9.85001 4.60001 8.5 6.26001 8.5H14.839L14.85 8.50008L14.861 8.5H17.74C19.4 8.5 20.75 9.85001 20.75 11.51V12.2H19.47C18.72 12.2 18.02 12.4899 17.51 13.0099C16.961 13.5497 16.6632 14.2737 16.6778 15.0286C16.6788 15.0845 16.6816 15.1404 16.6861 15.1965L16.6886 15.2256L16.69 15.2399C16.7179 15.5755 16.8089 15.8937 16.9511 16.1845C17.0378 16.3615 17.1434 16.5284 17.2654 16.6828C17.8024 17.3625 18.6563 17.8 19.6 17.8H20.75V18.24C20.75 19.9 19.4 21.25 17.74 21.25ZM21.52 16.28C21.5574 16.28 21.5941 16.2828 21.6301 16.2883C21.7301 16.2547 21.81 16.1523 21.81 16.03V13.9699C21.81 13.8199 21.69 13.71 21.53 13.7H19.48C19.2782 13.7 19.0865 13.7431 18.9162 13.8257C18.7989 13.8852 18.6922 13.9638 18.6 14.06L18.59 14.07C18.31 14.34 18.18 14.71 18.21 15.09C18.27 15.75 18.9 16.28 19.62 16.28H21.52ZM14.1 6.98999V3.95009C14.1 3.57009 13.92 3.23009 13.61 3.01009C13.29 2.79009 12.9 2.74008 12.54 2.87008L4.60001 5.87008C3.78001 6.18008 3.25 6.95011 3.25 7.84011V8.16C4.05076 7.43307 5.11384 6.98999 6.28001 6.98999H14.1ZM7 12.75H14C14.41 12.75 14.75 12.41 14.75 12C14.75 11.59 14.41 11.25 14 11.25H7C6.59 11.25 6.25 11.59 6.25 12C6.25 12.41 6.59 12.75 7 12.75ZM3.35988 20.39C3.49988 20.62 3.74988 20.75 3.99988 20.75C4.12988 20.75 4.26988 20.72 4.39988 20.64L5.64988 19.89C5.86988 19.76 6.00988 19.51 6.00988 19.25V17.75C6.00988 17.34 5.66988 17 5.25988 17C4.84988 17 4.50988 17.34 4.50988 17.75V18.83L3.61988 19.36C3.25988 19.57 3.14988 20.03 3.35988 20.39Z" fill="white"/>
</svg>
