<svg width="24" height="24" viewBox="0 0 24 24" fill="none" xmlns="http://www.w3.org/2000/svg">
<path fill-rule="evenodd" clip-rule="evenodd" d="M11.3792 3.30149L11.3782 3.30204L4.5452 6.85704C4.42462 6.91988 4.35039 7.0436 4.35039 7.1999C4.35039 7.3562 4.42447 7.47985 4.54505 7.54269L11.3782 11.0978L11.3792 11.0983C11.772 11.3004 12.2289 11.3004 12.6216 11.0983L12.6226 11.0978L19.4556 7.54277C19.5763 7.47995 19.6504 7.35627 19.6504 7.1999C19.6504 7.04354 19.5763 6.91985 19.4556 6.85704L12.6226 3.30204L12.6216 3.30151C12.2289 3.09937 11.772 3.09937 11.3792 3.30149ZM10.6906 1.9689C11.5153 1.54357 12.4855 1.54357 13.3102 1.9689L13.3125 1.97013L20.148 5.52644C21.4843 6.22204 21.4845 8.17768 20.1482 8.87329L13.3125 12.4297L13.3102 12.4309C12.4855 12.8562 11.5153 12.8562 10.6906 12.4309L10.6882 12.4297L3.85273 8.87337C2.51648 8.17776 2.51633 6.22212 3.85258 5.52652L10.6906 1.9689Z" fill="white"/>
<path fill-rule="evenodd" clip-rule="evenodd" d="M3.30769 11.594C3.22468 11.648 3.15039 11.7538 3.15039 11.9126V17.647C3.15039 18.2245 3.46205 18.7358 3.91638 18.9807L3.91772 18.9814L9.63061 22.0171C9.72303 22.0662 9.81265 22.0581 9.8931 22.0058C9.9761 21.9518 10.0504 21.846 10.0504 21.6872V15.9528C10.0504 15.3753 9.73876 14.864 9.28445 14.6191L3.57017 11.5827C3.47781 11.5337 3.38808 11.5417 3.30769 11.594ZM1.65039 11.9126C1.65039 10.5838 3.01496 9.59012 4.27313 10.2576L9.99331 13.2972C10.9556 13.8144 11.5504 14.8466 11.5504 15.9528V21.6872C11.5504 23.016 10.1858 24.0097 8.92765 23.3422L3.21066 20.3043L3.20748 20.3026C2.24521 19.7854 1.65039 18.7532 1.65039 17.647V11.9126Z" fill="white"/>
<path fill-rule="evenodd" clip-rule="evenodd" d="M19.7277 10.2576C20.9858 9.59012 22.3504 10.5838 22.3504 11.9126V17.647C22.3504 18.7532 21.7556 19.7854 20.7933 20.3026L20.7901 20.3044L15.0736 23.342C13.8154 24.0094 12.4504 23.016 12.4504 21.6872V15.9528C12.4504 14.8466 13.0452 13.8144 14.0075 13.2972L14.0107 13.2954L19.7277 10.2576ZM20.4306 11.5827L14.7163 14.6191C14.262 14.864 13.9504 15.3753 13.9504 15.9528V21.6872C13.9504 21.846 14.0247 21.9518 14.1077 22.0058C14.1881 22.0581 14.2777 22.0662 14.3702 22.0171L20.0831 18.9814L20.0844 18.9807C20.5387 18.7358 20.8504 18.2245 20.8504 17.647V11.9126C20.8504 11.7538 20.7761 11.648 20.6931 11.594C20.6127 11.5417 20.523 11.5337 20.4306 11.5827Z" fill="white"/>
</svg>
