<svg width="24" height="24" viewBox="0 0 24 24" fill="none" xmlns="http://www.w3.org/2000/svg">
<path d="M14.2852 11.9322L13.0102 12.2313L14.1601 12.858C14.5073 13.0472 14.7035 13.2529 14.7926 13.479C14.8804 13.7019 14.899 14.0332 14.7065 14.5481C14.4741 15.1648 14.1513 15.4376 13.769 15.561C13.3449 15.6978 12.7729 15.6755 12.0077 15.522L11.5783 15.4359L11.1065 15.3133C10.872 15.2524 10.6327 15.1902 10.39 15.1206L9.90472 14.9814L9.90202 14.9911L9.47923 14.8642L9.3355 15.3431C9.47923 14.8642 9.47915 14.8642 9.47906 14.8642L9.47888 14.8641L9.47853 14.864L9.4778 14.8638L9.47623 14.8633L9.47248 14.8623L9.46132 14.8591L9.41564 14.8464C9.372 14.8344 9.29721 14.8141 9.17056 14.7803C8.98251 14.7302 8.6789 14.6501 8.19105 14.5227L8.26139 14.3697C8.26861 14.3716 8.2757 14.3735 8.28264 14.3754C8.40838 14.409 8.55181 14.443 8.69236 14.4511C8.83977 14.4595 9.02372 14.442 9.19966 14.3335C9.37432 14.2258 9.47766 14.0675 9.5427 13.9191L9.55711 13.8862L9.56667 13.8516L10.747 9.58005L10.7589 9.53675L10.763 9.49201C10.7802 9.3019 10.7609 9.09829 10.6591 8.90812C10.5564 8.71626 10.4004 8.59526 10.2502 8.51564C10.1085 8.44049 9.9499 8.39061 9.80344 8.35108L9.81483 8.30983C9.85161 8.31961 9.8874 8.32912 9.92223 8.33837C10.6034 8.51941 10.921 8.60381 11.2037 8.6678L11.669 8.7731L11.6705 8.76774L12.1306 8.87539L12.1655 8.88356C12.4021 8.93889 12.631 8.99242 12.8525 9.04997L13.2829 9.1618L13.2824 9.16343L13.7197 9.31976C14.2716 9.51705 14.6651 9.73868 14.8981 9.99557C15.1058 10.2246 15.2109 10.5068 15.1329 10.9361L15.1325 10.9382C15.0713 11.283 14.9518 11.501 14.8184 11.6425C14.6852 11.7839 14.5094 11.8795 14.2852 11.9322ZM12.0802 9.02391L11.6036 8.90008L11.4725 9.37467L10.9474 11.2752L10.8152 11.7537L10.8121 11.7646L10.684 12.2282L10.1058 14.3208L9.97058 14.8102L10.462 14.9379C10.5041 14.9488 10.5563 14.9634 10.617 14.9802C10.9483 15.0723 11.5307 15.2342 12.0817 15.2627C12.4113 15.2797 12.7865 15.2541 13.1213 15.1025C13.4798 14.9401 13.7642 14.644 13.8875 14.1977C14.0123 13.746 13.926 13.3412 13.6935 13.0143C13.4778 12.7112 13.1595 12.5062 12.863 12.3635C12.6488 12.2604 12.4148 12.1765 12.1916 12.1083C12.3565 12.1373 12.5293 12.1592 12.6991 12.1659C12.9895 12.1774 13.3267 12.1489 13.6308 12.0005C13.9569 11.8413 14.209 11.5606 14.3217 11.1527C14.4359 10.7394 14.3708 10.3632 14.166 10.0537C13.9756 9.76605 13.6912 9.57567 13.4308 9.44636C13.0134 9.23911 12.5054 9.12256 12.2254 9.05833C12.1655 9.04458 12.1161 9.03324 12.0802 9.02391ZM12 22C6.48405 22 2 17.516 2 12C2 6.48405 6.48405 2 12 2C13.6592 2 15.224 2.40534 16.6019 3.12223C16.4928 3.23834 16.3899 3.36039 16.2937 3.48784C15.0023 2.83384 13.5429 2.46512 12 2.46512C6.74246 2.46512 2.46512 6.74246 2.46512 12C2.46512 17.2575 6.74246 21.5349 12 21.5349C17.2575 21.5349 21.5349 17.2575 21.5349 12C21.5349 11.4068 21.4804 10.8257 21.376 10.2615C21.5257 10.2047 21.6716 10.1401 21.813 10.068C21.9356 10.6929 22 11.3389 22 12C22 17.516 17.516 22 12 22ZM21.2674 6.13953C21.2674 6.94227 20.6167 7.59302 19.814 7.59302C19.0112 7.59302 18.3605 6.94227 18.3605 6.13953C18.3605 5.3368 19.0112 4.68605 19.814 4.68605C20.6167 4.68605 21.2674 5.3368 21.2674 6.13953Z" fill="white" stroke="white"/>
</svg>
