<svg width="24" height="24" viewBox="0 0 24 24" fill="none" xmlns="http://www.w3.org/2000/svg">
<path fill-rule="evenodd" clip-rule="evenodd" d="M8.9707 1.25C6.39673 1.25 4.39984 1.7602 3.06537 3.09467C1.7309 4.42914 1.2207 6.42603 1.2207 9V15C1.2207 17.574 1.7309 19.5709 3.06537 20.9053C4.39984 22.2398 6.39673 22.75 8.9707 22.75H14.9707C17.5447 22.75 19.5416 22.2398 20.876 20.9053C22.2105 19.5709 22.7207 17.574 22.7207 15V14.1328C22.7273 14.0928 22.7307 14.0518 22.7307 14.01C22.7307 13.9682 22.7273 13.9272 22.7207 13.8872V9C22.7207 6.42603 22.2105 4.42914 20.876 3.09467C19.5416 1.7602 17.5447 1.25 14.9707 1.25H8.9707ZM21.2207 13.26V9C21.2207 6.57397 20.7309 5.07086 19.8154 4.15533C18.8998 3.2398 17.3967 2.75 14.9707 2.75H8.9707C6.54468 2.75 5.04156 3.2398 4.12603 4.15533C3.2105 5.07086 2.7207 6.57397 2.7207 9V11.9475L7.9707 11.93C8.52645 11.93 9.06811 12.1366 9.50325 12.432C9.93856 12.7276 10.3305 13.155 10.5371 13.6715L10.5381 13.674L11.4452 15.9657L13.5028 10.7454C13.6472 10.378 13.9775 9.86997 14.5935 9.8373C15.2073 9.80475 15.5904 10.2724 15.774 10.6199L16.8146 12.5912C16.8909 12.7363 17.0566 12.9122 17.2918 13.054C17.5271 13.196 17.7594 13.26 17.9207 13.26H21.2207ZM2.7207 13.4475V15C2.7207 17.426 3.2105 18.9291 4.12603 19.8447C5.04156 20.7602 6.54468 21.25 8.9707 21.25H14.9707C17.3967 21.25 18.8998 20.7602 19.8154 19.8447C20.7309 18.9291 21.2207 17.426 21.2207 15V14.76H17.9207C17.422 14.76 16.9243 14.5841 16.5171 14.3385C16.11 14.0929 15.7205 13.7334 15.4868 13.2888L14.7 11.7985L12.6085 17.105L12.6071 17.1085C12.5201 17.3258 12.4001 17.5436 12.2298 17.7187C12.0561 17.8971 11.7902 18.0675 11.4457 18.0675C11.1012 18.0675 10.8353 17.8971 10.6616 17.7187C10.4913 17.5436 10.3713 17.3258 10.2843 17.1085L10.2833 17.106L9.14435 14.2285L9.14396 14.2276C9.07035 14.0443 8.90242 13.8371 8.66066 13.673C8.41874 13.5087 8.16587 13.4303 7.97176 13.43L7.9707 13.43L2.7207 13.4475Z" fill="white"/>
</svg>
