<svg width="24" height="24" viewBox="0 0 24 24" fill="none" xmlns="http://www.w3.org/2000/svg">
<path fill-rule="evenodd" clip-rule="evenodd" d="M12.4716 2.37618C13.4378 1.68083 14.8227 1.75201 16.4904 2.24011C18.945 2.96206 21.0373 5.05366 21.7592 7.50829C22.2473 9.17599 22.3188 10.5619 21.6234 11.528C20.918 12.5082 19.6496 12.7499 18.3197 12.7499H14.9997C13.8833 12.7499 12.8883 12.4693 12.1925 11.6969C11.5126 10.9423 11.2497 9.86042 11.2497 8.55992V5.67992C11.2497 4.35003 11.4914 3.08164 12.4716 2.37618ZM13.3478 3.59365C13.008 3.8382 12.7497 4.4098 12.7497 5.67992V8.55992C12.7497 9.69942 12.9868 10.3376 13.3069 10.6929C13.6111 11.0305 14.1161 11.2499 14.9997 11.2499H18.3197C19.5898 11.2499 20.1614 10.9916 20.406 10.6518C20.6606 10.298 20.7917 9.54314 20.3201 7.93139C19.7421 5.96627 18.0337 4.25779 16.0686 3.6796C14.4566 3.20785 13.7016 3.33903 13.3478 3.59365Z" fill="white"/>
<path fill-rule="evenodd" clip-rule="evenodd" d="M9.99457 3.86007C10.0773 4.26593 9.8154 4.66204 9.40954 4.74479C5.18079 5.60706 2.11661 9.68013 2.86 14.2997C3.42837 17.7717 6.22888 20.5709 9.69887 21.1294L9.6999 21.1296C14.3372 21.8826 18.4109 18.8014 19.2644 14.5522C19.346 14.1461 19.7413 13.883 20.1474 13.9646C20.5535 14.0462 20.8166 14.4415 20.735 14.8476C19.7285 19.8584 14.9222 23.4972 9.45949 22.6102C5.35025 21.9484 2.05143 18.6483 1.37953 14.541L1.37923 14.5392C0.503207 9.09914 4.11889 4.29272 9.10985 3.27504C9.51571 3.19228 9.91182 3.45421 9.99457 3.86007Z" fill="white"/>
</svg>
