<svg width="24" height="24" viewBox="0 0 24 24" fill="none" xmlns="http://www.w3.org/2000/svg">
<path fill-rule="evenodd" clip-rule="evenodd" d="M9.12039 1.6499C6.64642 1.6499 4.71953 2.1401 3.43006 3.42957C2.14059 4.71904 1.65039 6.64593 1.65039 9.1199V14.8799C1.65039 17.3539 2.14059 19.2808 3.43006 20.5702C4.71953 21.8597 6.64642 22.3499 9.12039 22.3499H14.8804C17.3544 22.3499 19.2813 21.8597 20.5707 20.5702C21.8602 19.2808 22.3504 17.3539 22.3504 14.8799V9.1199C22.3504 6.64593 21.8602 4.71904 20.5707 3.42957C19.2813 2.1401 17.3544 1.6499 14.8804 1.6499H9.12039ZM3.15039 9.1199C3.15039 6.79387 3.62019 5.36076 4.49072 4.49023C5.36125 3.6197 6.79436 3.1499 9.12039 3.1499H14.8804C17.2064 3.1499 18.6395 3.6197 19.5101 4.49023C20.3806 5.36076 20.8504 6.79387 20.8504 9.1199V10.0499H15.0298C15.0221 10.0172 15.0138 9.98453 15.0049 9.95183C14.7254 8.89201 13.8721 8.03931 12.812 7.76056C11.0032 7.28039 9.31989 8.41172 8.93331 10.0499H3.15039V9.1199ZM3.15039 11.5499V14.8799C3.15039 17.2059 3.62019 18.639 4.49072 19.5096C5.36125 20.3801 6.79436 20.8499 9.12039 20.8499H14.8804C17.2064 20.8499 18.6395 20.3801 19.5101 19.5096C20.3806 18.639 20.8504 17.2059 20.8504 14.8799V11.5499H15.0081C14.8427 12.199 14.4725 12.7585 13.9804 13.1674V14.7657C13.9804 15.8699 13.0846 16.7657 11.9804 16.7657C10.8762 16.7657 9.98041 15.8699 9.98041 14.7657V13.1674C9.48834 12.7585 9.11816 12.199 8.95271 11.5499H3.15039ZM10.3504 10.7657C10.3504 9.73114 11.3306 8.91886 12.4277 9.21052L12.43 9.21111C12.9682 9.35238 13.4137 9.79792 13.5549 10.3361L13.5568 10.343C13.6168 10.563 13.6241 10.7846 13.59 10.9963L13.5888 11.0037L13.5877 11.0111C13.5206 11.4875 13.2377 11.8984 12.8349 12.1485L12.4804 12.3685V14.7657C12.4804 15.0415 12.2562 15.2657 11.9804 15.2657C11.7046 15.2657 11.4804 15.0415 11.4804 14.7657V12.3685L11.1259 12.1485C10.7231 11.8984 10.4402 11.4875 10.3731 11.0111L10.371 10.9963L10.3683 10.9815C10.3572 10.9206 10.3504 10.8459 10.3504 10.7657Z" fill="white"/>
</svg>
