<svg width="25" height="24" viewBox="0 0 25 24" fill="none" xmlns="http://www.w3.org/2000/svg">
<path fill-rule="evenodd" clip-rule="evenodd" d="M12.5 2C6.98 2 2.5 6.48 2.5 12C2.5 17.52 6.98 22 12.5 22C18.01 22 22.5 17.52 22.5 12C22.5 6.48 18.01 2 12.5 2ZM19.105 6.61C20.3357 8.10931 21.0167 9.98437 21.035 11.924C20.754 11.87 17.934 11.295 15.092 11.653C15.027 11.512 14.972 11.36 14.908 11.208C14.731 10.791 14.543 10.3789 14.344 9.972C17.489 8.692 18.921 6.848 19.105 6.61ZM12.5 3.475C14.67 3.475 16.654 4.288 18.162 5.623C18.01 5.839 16.719 7.564 13.682 8.703C12.283 6.133 10.732 4.028 10.493 3.703C11.1509 3.54922 11.8244 3.4727 12.5 3.475ZM8.867 4.278C10.0114 5.86431 11.0687 7.51175 12.034 9.213C8.042 10.276 4.517 10.253 4.138 10.253C4.41283 8.96013 4.98261 7.74822 5.8029 6.71179C6.62319 5.67537 7.67182 4.84245 8.867 4.278ZM3.953 12.01V11.75C4.323 11.76 8.465 11.815 12.728 10.535C12.978 11.012 13.205 11.5 13.422 11.988C13.313 12.021 13.194 12.053 13.086 12.086C8.682 13.506 6.339 17.389 6.144 17.715C4.73384 16.1495 3.95264 14.117 3.953 12.01ZM12.5 20.547C10.6014 20.5502 8.75667 19.9164 7.261 18.747C7.413 18.432 9.149 15.091 13.964 13.41C13.986 13.4 13.997 13.4 14.018 13.388C14.8303 15.4834 15.4407 17.6516 15.841 19.863C14.7858 20.317 13.6487 20.5498 12.5 20.547ZM17.261 19.082C17.175 18.562 16.719 16.067 15.602 12.998C18.281 12.575 20.624 13.269 20.916 13.367C20.7336 14.5201 20.3148 15.623 19.6858 16.6065C19.0568 17.59 18.2313 18.4328 17.261 19.082Z" fill="#6D7A86"/>
</svg>
