<svg width="32" height="32" viewBox="0 0 32 32" fill="none" xmlns="http://www.w3.org/2000/svg">
<rect width="32" height="32" rx="16" fill="#101115"/>
<g clip-path="url(#clip0_115_6704)">
<path d="M12.1158 14.4042L16 10.52L19.8859 14.4058L22.1459 12.1458L16 6L9.85598 12.144L12.1159 14.404L12.1158 14.4042ZM6 16L8.26007 13.7396L10.52 15.9995L8.25991 18.2596L6 16ZM12.1158 17.5961L16 21.48L19.8859 17.5942L22.1471 19.853L22.1459 19.8542L16 26L9.85598 19.856L9.85278 19.8528L12.1161 17.5958L12.1158 17.5961ZM21.4799 16.001L23.74 13.7409L25.9999 16.0008L23.7399 18.2609L21.4799 16.001Z" fill="#FFBC00"/>
<path d="M18.2917 15.9988H18.2927L15.9995 13.7055L14.3046 15.4L14.1099 15.5948L13.7083 15.9965L13.7051 15.9996L13.7083 16.0029L15.9995 18.2946L18.2928 16.0012L18.2939 16L18.2919 15.9988" fill="#FFBC00"/>
</g>
<defs>
<clipPath id="clip0_115_6704">
<rect width="20" height="20" fill="white" transform="translate(6 6)"/>
</clipPath>
</defs>
</svg>
