<svg width="20" height="20" viewBox="0 0 20 20" fill="none" xmlns="http://www.w3.org/2000/svg">
<path opacity="0.2" d="M10 20C15.5228 20 20 15.5228 20 10C20 4.47715 15.5228 0 10 0C4.47715 0 0 4.47715 0 10C0 15.5228 4.47715 20 10 20Z" fill="#F3BA2F"/>
<path fill-rule="evenodd" clip-rule="evenodd" d="M7.66997 9.04226L10.0007 6.71258L12.3323 9.04415L13.6877 7.68786L10.0007 4L6.31364 7.68691L7.66997 9.04226ZM4 10.0002L5.35584 8.64443L6.71168 10.0002L5.35584 11.356L4 10.0002ZM10.0009 13.2886L7.67024 10.9579L6.31201 12.3123L6.31391 12.3142L10.0009 16.0002L13.688 12.3123L13.6889 12.3114L12.3326 10.957L10.0009 13.2886ZM13.2881 10.0004L14.6439 8.6446L15.9998 10.0004L14.6439 11.3562L13.2881 10.0004ZM10.0013 8.62323L11.3766 9.99942H11.3776L11.3766 10.0004L10.0013 11.3766L8.62604 10.0023L8.62414 9.99942L8.62604 9.99753L8.86678 9.75679L8.98431 9.64021L10.0013 8.62323Z" fill="#F3BA2F"/>
</svg>
