<svg width="20" height="20" viewBox="0 0 20 20" fill="none" xmlns="http://www.w3.org/2000/svg">
<path opacity="0.2" d="M19.6988 12.4192C18.3631 17.7764 12.9369 21.0364 7.57909 19.7008C2.22377 18.3652 -1.03654 12.9389 0.299398 7.58206C1.6344 2.22425 7.06034 -1.03638 12.4166 0.299249C17.7741 1.63487 21.0341 7.06175 19.6985 12.4192H19.6988Z" fill="#F7931A"/>
<path fill-rule="evenodd" clip-rule="evenodd" d="M14.0418 8.82716C14.2302 7.56631 13.2702 6.8885 11.9575 6.43634L12.3833 4.72836L11.3433 4.46926L10.9288 6.13223C10.6558 6.06412 10.3751 5.99987 10.0961 5.9362L10.5136 4.26227L9.47457 4.00317L9.04846 5.71056C8.82223 5.65904 8.60015 5.60811 8.38458 5.55451L8.38576 5.54918L6.95198 5.19118L6.67541 6.30161C6.67541 6.30161 7.44679 6.47839 7.4305 6.48934C7.85157 6.59446 7.92797 6.87311 7.91494 7.09401L7.42991 9.03977C7.45893 9.04717 7.49653 9.05783 7.53799 9.07442L7.42843 9.04717L6.74825 11.7729C6.69673 11.9008 6.56614 12.0927 6.27181 12.0199C6.28217 12.035 5.51613 11.8312 5.51613 11.8312L5 13.0216L6.35324 13.3589C6.506 13.3972 6.6569 13.4365 6.80615 13.4755C6.90282 13.5007 6.99879 13.5257 7.09412 13.5502L6.66386 15.278L7.70233 15.5371L8.12874 13.8279C8.41212 13.9049 8.6875 13.976 8.95697 14.0429L8.53234 15.7441L9.57199 16.0032L10.0022 14.2789C11.7751 14.6144 13.1085 14.4791 13.669 12.8759C14.1212 11.5849 13.6468 10.8401 12.7141 10.3542C13.3933 10.197 13.905 9.75015 14.0415 8.82716H14.0418ZM11.6623 12.1625C11.3671 13.3474 9.51201 12.8571 8.66396 12.633C8.58802 12.6129 8.52015 12.595 8.4622 12.5806L9.03311 10.2919C9.10393 10.3096 9.19045 10.329 9.28846 10.351L9.2885 10.351C10.1658 10.5479 11.9638 10.9514 11.6626 12.1625H11.6623ZM9.46799 9.269C10.1756 9.45778 11.718 9.86927 11.9867 8.79284C12.2614 7.69162 10.7616 7.35971 10.0291 7.19761C9.94673 7.17938 9.87408 7.16331 9.81474 7.14852L9.29713 9.22428C9.34611 9.23648 9.40359 9.25182 9.46799 9.269Z" fill="#F7931A"/>
</svg>
