<svg xmlns="http://www.w3.org/2000/svg" width="48" height="48" fill="none" viewBox="0 0 48 48">
    <path fill="#fff" d="M35.986 16.11c-.739-.778-1.97-.813-2.751-.072L20.812 27.82l-5.925-6.084c-.75-.77-1.981-.787-2.752-.036-.77.75-.786 1.981-.036 2.751l7.265 7.46c.38.39.886.587 1.394.587.48 0 .962-.177 1.34-.533l13.815-13.103c.78-.74.813-1.971.073-2.751z"/>
    <path fill="#fff" d="M24 0C10.766 0 0 10.766 0 24s10.766 24 24 24 24-10.766 24-24S37.234 0 24 0zm0 44.108c-11.087 0-20.108-9.02-20.108-20.108 0-11.087 9.02-20.108 20.108-20.108 11.088 0 20.108 9.02 20.108 20.108 0 11.088-9.02 20.108-20.108 20.108z"/>
</svg>
