<svg width="100" height="100" viewBox="0 0 100 100" fill="none" xmlns="http://www.w3.org/2000/svg">
<g clip-path="url(#clip0_846_8358)">
<path fill-rule="evenodd" clip-rule="evenodd" d="M50 0C77.6172 0 100 22.3828 100 50C100 77.6172 77.6172 100 50 100C22.3828 100 0 77.6172 0 50C0 22.3828 22.3828 0 50 0Z" fill="url(#paint0_radial_846_8358)"/>
<path d="M31.7773 38.6133C41.8359 28.7891 58.1641 28.7891 68.2227 38.6133L69.4336 39.8047C69.9414 40.293 69.9414 41.0937 69.4336 41.582L65.293 45.625C65.0391 45.8789 64.6289 45.8789 64.375 45.625L62.7148 44.0039C55.6836 37.1484 44.3164 37.1484 37.2852 44.0039L35.5078 45.7422C35.2539 45.9961 34.8438 45.9961 34.5898 45.7422L30.4492 41.6992C29.9414 41.2109 29.9414 40.4102 30.4492 39.9219L31.7773 38.6133ZM76.7969 46.9727L80.4883 50.5664C80.9961 51.0547 80.9961 51.8555 80.4883 52.3438L63.8672 68.5742C63.3594 69.0625 62.5391 69.0625 62.0508 68.5742L50.2539 57.0508C50.1367 56.9336 49.9219 56.9336 49.8047 57.0508L38.0078 68.5742C37.5 69.0625 36.6797 69.0625 36.1914 68.5742L19.5117 52.3438C19.0039 51.8555 19.0039 51.0547 19.5117 50.5664L23.2031 46.9727C23.7109 46.4844 24.5313 46.4844 25.0195 46.9727L36.8164 58.4961C36.9336 58.6133 37.1484 58.6133 37.2656 58.4961L49.0625 46.9727C49.5703 46.4844 50.3906 46.4844 50.8789 46.9727L62.6758 58.4961C62.793 58.6133 63.0078 58.6133 63.125 58.4961L74.9219 46.9727C75.4687 46.4844 76.2891 46.4844 76.7969 46.9727Z" fill="white"/>
</g>
<defs>
<radialGradient id="paint0_radial_846_8358" cx="0" cy="0" r="1" gradientUnits="userSpaceOnUse" gradientTransform="translate(0.000309944 50.0016) scale(100)">
<stop stop-color="#5D9DF6"/>
<stop offset="1" stop-color="#006FFF"/>
</radialGradient>
<clipPath id="clip0_846_8358">
<rect width="100" height="100" fill="white"/>
</clipPath>
</defs>
</svg>
