<svg width="45" height="44" viewBox="0 0 45 44" fill="none" xmlns="http://www.w3.org/2000/svg">
<path fill-rule="evenodd" clip-rule="evenodd" d="M22.5 44C34.6503 44 44.5 34.1503 44.5 22C44.5 9.84974 34.6503 0 22.5 0C10.3497 0 0.5 9.84974 0.5 22C0.5 34.1503 10.3497 44 22.5 44ZM29.8349 24.2C29.8349 23.795 29.5066 23.4666 29.1016 23.4666C28.6966 23.4666 28.3682 23.795 28.3682 24.2V27.1333C28.3682 27.3278 28.291 27.5143 28.1534 27.6519C28.0159 27.7894 27.8294 27.8666 27.6349 27.8666H17.3682C17.1737 27.8666 16.9872 27.7894 16.8497 27.6519C16.7122 27.5143 16.6349 27.3278 16.6349 27.1333V24.2C16.6349 23.795 16.3066 23.4666 15.9016 23.4666C15.4966 23.4666 15.1682 23.795 15.1682 24.2V27.1333C15.1682 27.7168 15.4 28.2764 15.8126 28.6889C16.2252 29.1015 16.7848 29.3333 17.3682 29.3333H27.6349C28.2184 29.3333 28.778 29.1015 29.1905 28.6889C29.6031 28.2764 29.8349 27.7168 29.8349 27.1333V24.2ZM26.6864 20.0148C26.9728 20.3012 26.9728 20.7655 26.6864 21.0519L23.0393 24.699C22.9082 24.8401 22.7223 24.9294 22.5155 24.9332C22.3231 24.9369 22.1295 24.8654 21.9827 24.7185L18.316 21.0519C18.0296 20.7655 18.0296 20.3012 18.316 20.0148C18.6024 19.7284 19.0667 19.7284 19.3531 20.0148L21.7686 22.4303V15.4C21.7686 14.995 22.0969 14.6666 22.502 14.6666C22.907 14.6666 23.2353 14.995 23.2353 15.4V22.4289L25.6494 20.0148C25.9357 19.7284 26.4001 19.7284 26.6864 20.0148Z" fill="url(#paint0_linear_592_7749)" fill-opacity="0.7"/>
<defs>
<linearGradient id="paint0_linear_592_7749" x1="-68.8837" y1="18.9441" x2="13.7699" y2="101.624" gradientUnits="userSpaceOnUse">
<stop stop-color="#1FF7FD"/>
<stop offset="0.49074" stop-color="#B33BF6"/>
<stop offset="0.845877" stop-color="#FF844C"/>
<stop offset="1" stop-color="#FF844B"/>
</linearGradient>
</defs>
</svg>
