<svg width="20" height="20" viewBox="0 0 20 20" fill="none" xmlns="http://www.w3.org/2000/svg">
<path opacity="0.2" d="M19.9453 10.0001C19.9453 15.4939 15.4918 19.9475 9.99809 19.9475C4.50432 19.9475 0.0507812 15.4939 0.0507812 10.0001C0.0507812 4.50639 4.50432 0.0528564 9.99809 0.0528564C15.4917 0.0528564 19.9453 4.50639 19.9453 10.0001Z" fill="#B1B1B1"/>
<g opacity="0.8">
<path d="M9.99945 3L9.91211 3.29688V11.9115L9.99945 11.9987L13.9983 9.63502L9.99945 3Z" fill="white"/>
<path d="M9.99882 3L6 9.63502L9.99882 11.9987V7.81745V3Z" fill="white"/>
<path d="M9.99844 13.2994L9.94922 13.3594V16.4281L9.99844 16.5719L13.9997 10.9369L9.99844 13.2994Z" fill="white"/>
<path d="M9.99882 16.5719V13.2994L6 10.9369L9.99882 16.5719Z" fill="white"/>
<path d="M9.99805 11.9986L13.9968 9.63495L9.99805 7.81738V11.9986Z" fill="white"/>
<path d="M6 9.63495L9.99876 11.9986V7.81738L6 9.63495Z" fill="white"/>
</g>
</svg>
