<svg width="25" height="24" viewBox="0 0 25 24" fill="none" xmlns="http://www.w3.org/2000/svg">
<path fill-rule="evenodd" clip-rule="evenodd" d="M12.5 2C6.977 2 2.5 6.484 2.5 12.017C2.5 16.442 5.365 20.197 9.339 21.521C9.839 21.613 10.021 21.304 10.021 21.038C10.021 20.801 10.013 20.17 10.008 19.335C7.226 19.94 6.639 17.992 6.639 17.992C6.185 16.834 5.529 16.526 5.529 16.526C4.621 15.906 5.598 15.918 5.598 15.918C6.601 15.988 7.129 16.95 7.129 16.95C8.021 18.48 9.47 18.038 10.039 17.782C10.131 17.135 10.389 16.694 10.675 16.444C8.455 16.191 6.12 15.331 6.12 11.493C6.12 10.4 6.51 9.505 7.149 8.805C7.046 8.552 6.703 7.533 7.247 6.155C7.247 6.155 8.087 5.885 9.997 7.181C10.8128 6.95851 11.6544 6.84519 12.5 6.844C13.35 6.848 14.205 6.959 15.004 7.181C16.913 5.885 17.751 6.154 17.751 6.154C18.297 7.533 17.953 8.552 17.851 8.805C18.491 9.505 18.879 10.4 18.879 11.493C18.879 15.341 16.54 16.188 14.313 16.436C14.672 16.745 14.991 17.356 14.991 18.291C14.991 19.629 14.979 20.71 14.979 21.038C14.979 21.306 15.159 21.618 15.667 21.52C17.6583 20.8521 19.3893 19.5753 20.6155 17.87C21.8416 16.1648 22.5009 14.1173 22.5 12.017C22.5 6.484 18.022 2 12.5 2Z" fill="#6D7A86"/>
</svg>
