<svg width="25" height="24" viewBox="0 0 25 24" fill="none" xmlns="http://www.w3.org/2000/svg">
<path fill-rule="evenodd" clip-rule="evenodd" d="M12.815 2C15.245 2 15.599 2.013 16.623 2.06C17.687 2.109 18.414 2.278 19.05 2.525C19.7175 2.77587 20.3222 3.16936 20.822 3.678C21.3306 4.17777 21.7241 4.7825 21.975 5.45C22.222 6.086 22.391 6.813 22.44 7.877C22.488 8.944 22.5 9.284 22.5 12V12.08C22.5 14.723 22.488 15.067 22.44 16.123C22.391 17.187 22.222 17.914 21.975 18.55C21.7241 19.2175 21.3306 19.8222 20.822 20.322C20.3222 20.8306 19.7175 21.2241 19.05 21.475C18.414 21.722 17.687 21.891 16.623 21.94C15.556 21.988 15.216 22 12.5 22H12.42C9.777 22 9.433 21.988 8.377 21.94C7.313 21.891 6.586 21.722 5.95 21.475C5.2825 21.2241 4.67777 20.8306 4.178 20.322C3.66936 19.8222 3.27587 19.2175 3.025 18.55C2.778 17.914 2.609 17.187 2.56 16.123C2.513 15.099 2.5 14.744 2.5 12.315V11.685C2.5 9.255 2.513 8.901 2.56 7.877C2.609 6.813 2.778 6.086 3.025 5.45C3.27587 4.7825 3.66936 4.17777 4.178 3.678C4.67777 3.16936 5.2825 2.77587 5.95 2.525C6.586 2.278 7.313 2.109 8.377 2.06C9.401 2.013 9.756 2 12.185 2H12.815ZM12.734 3.802H12.266C9.81 3.802 9.482 3.813 8.459 3.86C7.484 3.905 6.955 4.067 6.602 4.204C6.135 4.386 5.802 4.602 5.452 4.952C5.102 5.302 4.886 5.635 4.704 6.102C4.567 6.455 4.404 6.984 4.36 7.959C4.313 8.982 4.302 9.31 4.302 11.766V12.234C4.302 14.69 4.313 15.018 4.36 16.041C4.405 17.016 4.567 17.545 4.704 17.898C4.886 18.364 5.103 18.698 5.452 19.048C5.802 19.398 6.135 19.614 6.602 19.796C6.955 19.933 7.484 20.096 8.459 20.14C9.513 20.188 9.829 20.198 12.5 20.198H12.58C15.177 20.198 15.497 20.188 16.54 20.14C17.516 20.095 18.045 19.933 18.398 19.796C18.864 19.614 19.198 19.398 19.548 19.048C19.898 18.698 20.114 18.365 20.296 17.898C20.433 17.545 20.596 17.016 20.64 16.041C20.688 14.986 20.698 14.671 20.698 12V11.92C20.698 9.323 20.688 9.003 20.64 7.96C20.595 6.984 20.433 6.455 20.296 6.102C20.1358 5.66757 19.8802 5.2746 19.548 4.952C19.2254 4.61986 18.8324 4.36426 18.398 4.204C18.045 4.067 17.516 3.904 16.541 3.86C15.518 3.813 15.19 3.802 12.734 3.802ZM12.5 6.865C13.1743 6.865 13.8421 6.99782 14.4651 7.25588C15.0881 7.51394 15.6542 7.89218 16.131 8.36901C16.6078 8.84584 16.9861 9.41191 17.2441 10.0349C17.5022 10.6579 17.635 11.3257 17.635 12C17.635 12.6743 17.5022 13.3421 17.2441 13.9651C16.9861 14.5881 16.6078 15.1542 16.131 15.631C15.6542 16.1078 15.0881 16.4861 14.4651 16.7441C13.8421 17.0022 13.1743 17.135 12.5 17.135C11.1381 17.135 9.83201 16.594 8.86901 15.631C7.90601 14.668 7.365 13.3619 7.365 12C7.365 10.6381 7.90601 9.33201 8.86901 8.36901C9.83201 7.40601 11.1381 6.865 12.5 6.865ZM12.5 8.667C11.616 8.667 10.7683 9.01815 10.1432 9.64321C9.51815 10.2683 9.167 11.116 9.167 12C9.167 12.884 9.51815 13.7317 10.1432 14.3568C10.7683 14.9818 11.616 15.333 12.5 15.333C13.384 15.333 14.2317 14.9818 14.8568 14.3568C15.4818 13.7317 15.833 12.884 15.833 12C15.833 11.116 15.4818 10.2683 14.8568 9.64321C14.2317 9.01815 13.384 8.667 12.5 8.667ZM17.838 5.462C18.1563 5.462 18.4615 5.58843 18.6865 5.81347C18.9116 6.03852 19.038 6.34374 19.038 6.662C19.038 6.98026 18.9116 7.28548 18.6865 7.51053C18.4615 7.73557 18.1563 7.862 17.838 7.862C17.5197 7.862 17.2145 7.73557 16.9895 7.51053C16.7644 7.28548 16.638 6.98026 16.638 6.662C16.638 6.34374 16.7644 6.03852 16.9895 5.81347C17.2145 5.58843 17.5197 5.462 17.838 5.462Z" fill="#6D7A86"/>
</svg>
