<svg width="48" height="48" viewBox="0 0 48 48" fill="none" xmlns="http://www.w3.org/2000/svg">
<path d="M40 22V10C40 7.794 38.206 6 36 6H30C30 5.46957 29.7893 4.96086 29.4142 4.58579C29.0391 4.21071 28.5304 4 28 4H16C15.4696 4 14.9609 4.21071 14.5858 4.58579C14.2107 4.96086 14 5.46957 14 6H8C5.794 6 4 7.794 4 10V36C4 38.206 5.794 40 8 40H22C22 42.206 23.794 44 26 44H40C42.206 44 44 42.206 44 40V26C44 23.794 42.206 22 40 22ZM22 26V36H8V10H14V14H30V10H36V22H26C23.794 22 22 23.794 22 26ZM26 40V26H40L40.002 40H26Z" fill="black"/>
</svg>
