<svg width="100" height="100" viewBox="0 0 100 100" fill="none" xmlns="http://www.w3.org/2000/svg">
<path fill-rule="evenodd" clip-rule="evenodd" d="M50 100C77.6142 100 100 77.6142 100 50C100 22.3858 77.6142 0 50 0C22.3858 0 0 22.3858 0 50C0 77.6142 22.3858 100 50 100ZM62.3124 35.4167H37.3207L40.0145 32.7229C40.827 31.9083 40.827 30.5917 40.0145 29.7771C39.1999 28.9625 37.8811 28.9625 37.0686 29.7771L30.8186 36.0271C30.004 36.8417 30.004 38.1583 30.8186 38.9729L37.0686 45.2229C37.4749 45.6292 38.0082 45.8333 38.5415 45.8333C39.0749 45.8333 39.6082 45.6292 40.0145 45.2229C40.827 44.4083 40.827 43.0917 40.0145 42.2771L37.3207 39.5833H62.3124C64.1395 39.5833 65.6249 41.0146 65.6249 42.7687V47.9167C65.6249 49.0687 66.5561 50 67.7082 50C68.8603 50 69.7915 49.0687 69.7915 47.9167V42.7687C69.7915 38.7146 66.4353 35.4167 62.3124 35.4167ZM62.9306 54.7771C62.116 53.9625 60.7993 53.9625 59.9848 54.7771C59.1702 55.5917 59.1702 56.9083 59.9848 57.7229L62.6785 60.4167H37.6868C35.8598 60.4167 34.3743 58.9875 34.3743 57.2313V52.0833C34.3743 50.9313 33.441 50 32.291 50C31.141 50 30.2077 50.9313 30.2077 52.0833V57.2313C30.2077 61.2854 33.5618 64.5833 37.6868 64.5833H62.6785L59.9848 67.2771C59.1702 68.0917 59.1702 69.4083 59.9848 70.2229C60.391 70.6292 60.9243 70.8333 61.4577 70.8333C61.991 70.8333 62.5243 70.6292 62.9306 70.2229L69.1806 63.9729C69.9952 63.1583 69.9952 61.8417 69.1806 61.0271L62.9306 54.7771Z" fill="url(#paint0_linear_115_7390)" fill-opacity="0.7"/>
<defs>
<linearGradient id="paint0_linear_115_7390" x1="-157.69" y1="43.0548" x2="30.1588" y2="230.963" gradientUnits="userSpaceOnUse">
<stop stop-color="#1FF7FD"/>
<stop offset="0.49074" stop-color="#B33BF6"/>
<stop offset="0.845877" stop-color="#FF844C"/>
<stop offset="1" stop-color="#FF844B"/>
</linearGradient>
</defs>
</svg>
