<svg width="24" height="24" viewBox="0 0 24 24" fill="current" xmlns="http://www.w3.org/2000/svg">
<path fill-rule="evenodd" clip-rule="evenodd" d="M9.70999 7.13C9.70999 3.88257 12.3426 1.25 15.59 1.25C18.8374 1.25 21.47 3.88257 21.47 7.13C21.47 10.3774 18.8374 13.01 15.59 13.01C13.9644 13.01 12.4928 12.3503 11.4284 11.284L9.52767 13.0043C9.94643 13.6183 10.1913 14.3604 10.1913 15.1597C10.1913 15.516 10.1426 15.8609 10.0516 16.1882L12.7037 17.5478C13.3019 16.6906 14.2955 16.1297 15.4202 16.1297C17.2482 16.1297 18.7302 17.6116 18.7302 19.4397C18.7302 21.2677 17.2482 22.7497 15.4202 22.7497C13.5921 22.7497 12.1102 21.2677 12.1102 19.4397C12.1102 19.2725 12.1225 19.1083 12.1465 18.9478L9.37306 17.5259C8.67179 18.4173 7.58336 18.9897 6.36124 18.9897C4.24598 18.9897 2.53125 17.2749 2.53125 15.1597C2.53125 13.0444 4.24598 11.3297 6.36124 11.3297C7.13394 11.3297 7.8532 11.5585 8.45495 11.9521L10.5097 10.0924C10.0013 9.2225 9.70999 8.21027 9.70999 7.13ZM15.59 2.75C13.171 2.75 11.21 4.711 11.21 7.13C11.21 9.54901 13.171 11.51 15.59 11.51C18.009 11.51 19.97 9.54901 19.97 7.13C19.97 4.711 18.009 2.75 15.59 2.75ZM6.36124 12.8297C5.07442 12.8297 4.03125 13.8729 4.03125 15.1597C4.03125 16.4465 5.07442 17.4897 6.36124 17.4897C7.64807 17.4897 8.69125 16.4465 8.69125 15.1597C8.69125 13.8729 7.64807 12.8297 6.36124 12.8297ZM13.6102 19.4397C13.6102 18.44 14.4205 17.6297 15.4202 17.6297C16.4198 17.6297 17.2302 18.44 17.2302 19.4397C17.2302 20.4393 16.4198 21.2497 15.4202 21.2497C14.4205 21.2497 13.6102 20.4393 13.6102 19.4397Z" fill="current"/>
</svg>
