<svg width="33" height="32" viewBox="0 0 33 32" fill="none" xmlns="http://www.w3.org/2000/svg">
<path fill-rule="evenodd" clip-rule="evenodd" d="M8.26062 9.7989C8.1739 10.9205 9.03095 12.2786 10.7451 14.9949L17.2689 25.333L23.7927 14.9949C25.5068 12.2786 26.3639 10.9205 26.2771 9.7989C26.2016 8.82133 25.7069 7.92421 24.9205 7.33857C24.0184 6.66666 22.4125 6.66666 19.2006 6.66666H15.3372C12.1253 6.66666 10.5194 6.66666 9.6172 7.33857C8.83086 7.92421 8.33621 8.82133 8.26062 9.7989ZM12.9617 25.333H15.7838L10.5341 17.1665L9.36637 18.9165C8.04832 20.9613 7.56163 22.1211 7.6213 22.9668C7.67329 23.7038 8.04289 24.3817 8.63411 24.8248C9.31255 25.333 10.5289 25.333 12.9617 25.333Z" fill="url(#paint0_linear_552_7471)"/>
<circle cx="16.9497" cy="16" r="16" fill="#101115" fill-opacity="0.3"/>
<defs>
<linearGradient id="paint0_linear_552_7471" x1="28.1913" y1="34.4966" x2="7.29121" y2="6.30617" gradientUnits="userSpaceOnUse">
<stop stop-color="#17B0F3"/>
<stop offset="0.239482" stop-color="#3B7FE5"/>
<stop offset="0.458333" stop-color="#6749D5"/>
<stop offset="0.687502" stop-color="#DC40A4"/>
<stop offset="1" stop-color="#FD7842"/>
</linearGradient>
</defs>
</svg>
