<svg width="179" height="52" viewBox="0 0 179 52" fill="none" xmlns="http://www.w3.org/2000/svg">
<g filter="url(#filter0_d_115_7128)">
<path fill-rule="evenodd" clip-rule="evenodd" d="M13.3263 8.02722C13.2148 9.46928 14.3168 11.2155 16.5208 14.7079L24.909 28L33.2972 14.7079C35.5012 11.2155 36.6032 9.46928 36.4916 8.02722C36.3945 6.77033 35.7584 5.61688 34.7474 4.86391C33.5874 4 31.5225 4 27.3928 4H22.4252C18.2954 4 16.2306 4 15.0706 4.86391C14.0595 5.61688 13.4235 6.77033 13.3263 8.02722ZM19.3709 28H22.9995L16.2495 17.5L14.7481 19.75C13.0533 22.3791 12.4276 23.8704 12.5043 24.9577C12.5711 25.9051 13.0464 26.7769 13.8065 27.3464C14.6789 28 16.2429 28 19.3709 28Z" fill="url(#paint0_linear_115_7128)"/>
</g>
<path d="M57.516 26.196C55.22 26.196 53.3347 25.6547 51.86 24.572C50.3853 23.4707 49.592 21.9027 49.48 19.868H55.332C55.388 20.5587 55.5933 21.0627 55.948 21.38C56.3027 21.6973 56.76 21.856 57.32 21.856C57.824 21.856 58.2347 21.7347 58.552 21.492C58.888 21.2307 59.056 20.876 59.056 20.428C59.056 19.8493 58.7853 19.4013 58.244 19.084C57.7027 18.7667 56.8253 18.412 55.612 18.02C54.324 17.5907 53.2787 17.18 52.476 16.788C51.692 16.3773 51.0013 15.7893 50.404 15.024C49.8253 14.24 49.536 13.2227 49.536 11.972C49.536 10.7027 49.8533 9.62 50.488 8.724C51.1227 7.80933 52 7.11867 53.12 6.652C54.24 6.18533 55.5093 5.952 56.928 5.952C59.224 5.952 61.0533 6.49333 62.416 7.576C63.7973 8.64 64.5347 10.1427 64.628 12.084H58.664C58.6453 11.4867 58.4587 11.0387 58.104 10.74C57.768 10.4413 57.3293 10.292 56.788 10.292C56.3773 10.292 56.0413 10.4133 55.78 10.656C55.5187 10.8987 55.388 11.244 55.388 11.692C55.388 12.0653 55.528 12.392 55.808 12.672C56.1067 12.9333 56.4707 13.1667 56.9 13.372C57.3293 13.5587 57.964 13.8013 58.804 14.1C60.0547 14.5293 61.0813 14.9587 61.884 15.388C62.7053 15.7987 63.4053 16.3867 63.984 17.152C64.5813 17.8987 64.88 18.8507 64.88 20.008C64.88 21.184 64.5813 22.2387 63.984 23.172C63.4053 24.1053 62.556 24.8427 61.436 25.384C60.3347 25.9253 59.028 26.196 57.516 26.196ZM84.6233 10.292L74.6553 33.476H68.6913L72.4433 25.328L66.0033 10.292H72.1073L75.4113 19.196L78.6033 10.292H84.6233ZM96.6149 10.152C98.4256 10.152 99.8629 10.7587 100.927 11.972C101.991 13.1667 102.523 14.7907 102.523 16.844V26H97.0349V17.572C97.0349 16.676 96.8016 15.976 96.3349 15.472C95.8683 14.9493 95.2429 14.688 94.4589 14.688C93.6376 14.688 92.9936 14.9493 92.5269 15.472C92.0603 15.976 91.8269 16.676 91.8269 17.572V26H86.3389V10.292H91.8269V12.532C92.3123 11.8227 92.9656 11.2533 93.7869 10.824C94.6083 10.376 95.5509 10.152 96.6149 10.152ZM115.082 21.324V26H112.702C108.689 26 106.682 24.012 106.682 20.036V14.856H104.75V10.292H106.682V6.484H112.198V10.292H115.054V14.856H112.198V20.12C112.198 20.5493 112.292 20.8573 112.478 21.044C112.684 21.2307 113.02 21.324 113.486 21.324H115.082ZM123.367 13.064C123.983 12.168 124.73 11.4587 125.607 10.936C126.485 10.4133 127.427 10.152 128.435 10.152V16.004H126.895C125.701 16.004 124.814 16.2373 124.235 16.704C123.657 17.1707 123.367 17.9827 123.367 19.14V26H117.879V10.292H123.367V13.064ZM146.755 10.292V26H141.239V23.76C140.772 24.4693 140.128 25.048 139.307 25.496C138.486 25.9253 137.543 26.14 136.479 26.14C134.65 26.14 133.203 25.5427 132.139 24.348C131.094 23.1347 130.571 21.492 130.571 19.42V10.292H136.031V18.72C136.031 19.616 136.264 20.3253 136.731 20.848C137.216 21.352 137.851 21.604 138.635 21.604C139.438 21.604 140.072 21.352 140.539 20.848C141.006 20.3253 141.239 19.616 141.239 18.72V10.292H146.755ZM170.682 10.152C172.661 10.152 174.21 10.7493 175.33 11.944C176.469 13.1387 177.038 14.772 177.038 16.844V26H171.55V17.572C171.55 16.732 171.317 16.0787 170.85 15.612C170.383 15.1453 169.749 14.912 168.946 14.912C168.143 14.912 167.509 15.1453 167.042 15.612C166.575 16.0787 166.342 16.732 166.342 17.572V26H160.854V17.572C160.854 16.732 160.621 16.0787 160.154 15.612C159.706 15.1453 159.081 14.912 158.278 14.912C157.457 14.912 156.813 15.1453 156.346 15.612C155.879 16.0787 155.646 16.732 155.646 17.572V26H150.158V10.292H155.646V12.364C156.131 11.692 156.757 11.16 157.522 10.768C158.306 10.3573 159.202 10.152 160.21 10.152C161.367 10.152 162.394 10.404 163.29 10.908C164.205 11.412 164.923 12.1213 165.446 13.036C166.006 12.1773 166.743 11.4867 167.658 10.964C168.573 10.4227 169.581 10.152 170.682 10.152Z" fill="white"/>
<defs>
<filter id="filter0_d_115_7128" x="0.498047" y="4" width="48.002" height="48" filterUnits="userSpaceOnUse" color-interpolation-filters="sRGB">
<feFlood flood-opacity="0" result="BackgroundImageFix"/>
<feColorMatrix in="SourceAlpha" type="matrix" values="0 0 0 0 0 0 0 0 0 0 0 0 0 0 0 0 0 0 127 0" result="hardAlpha"/>
<feOffset dy="12"/>
<feGaussianBlur stdDeviation="6"/>
<feComposite in2="hardAlpha" operator="out"/>
<feColorMatrix type="matrix" values="0 0 0 0 0.913725 0 0 0 0 0.337255 0 0 0 0 0.490196 0 0 0 0.26 0"/>
<feBlend mode="normal" in2="BackgroundImageFix" result="effect1_dropShadow_115_7128"/>
<feBlend mode="normal" in="SourceGraphic" in2="effect1_dropShadow_115_7128" result="shape"/>
</filter>
<linearGradient id="paint0_linear_115_7128" x1="38.9529" y1="39.7818" x2="12.0812" y2="3.53547" gradientUnits="userSpaceOnUse">
<stop stop-color="#17B0F3"/>
<stop offset="0.239482" stop-color="#3B7FE5"/>
<stop offset="0.458333" stop-color="#6749D5"/>
<stop offset="0.687502" stop-color="#DC40A4"/>
<stop offset="1" stop-color="#FD7842"/>
</linearGradient>
</defs>
</svg>
