<svg width="24" height="24" viewBox="0 0 24 24" fill="none" xmlns="http://www.w3.org/2000/svg">
<path fill-rule="evenodd" clip-rule="evenodd" d="M5.48312 7.34918C5.41808 8.19037 6.06087 9.20898 7.34645 11.2462L12.2393 18.9998L17.1322 11.2462C18.4178 9.20898 19.0606 8.19037 18.9955 7.34918C18.9389 6.616 18.5678 5.94317 17.9781 5.50394C17.3014 5 16.097 5 13.6881 5H10.7905C8.38163 5 7.1772 5 6.50056 5.50394C5.9108 5.94317 5.53982 6.616 5.48312 7.34918ZM9.00892 18.9998H11.1255L7.18822 12.8749L6.31243 14.1874C5.3239 15.721 4.95888 16.5909 5.00363 17.2251C5.04263 17.7778 5.31983 18.2863 5.76324 18.6186C6.27207 18.9998 7.18436 18.9998 9.00892 18.9998Z" fill="url(#paint0_linear_115_6786)"/>
<circle cx="12" cy="12" r="12" fill="url(#paint1_linear_115_6786)" fill-opacity="0.3"/>
<defs>
<linearGradient id="paint0_linear_115_6786" x1="20.4311" y1="25.8724" x2="4.75607" y2="4.72963" gradientUnits="userSpaceOnUse">
<stop stop-color="#17B0F3"/>
<stop offset="0.239482" stop-color="#3B7FE5"/>
<stop offset="0.458333" stop-color="#6749D5"/>
<stop offset="0.687502" stop-color="#DC40A4"/>
<stop offset="1" stop-color="#FD7842"/>
</linearGradient>
<linearGradient id="paint1_linear_115_6786" x1="21.647" y1="83.4" x2="-8.6608" y2="80.6402" gradientUnits="userSpaceOnUse">
<stop stop-color="#17B0F3"/>
<stop offset="0.239482" stop-color="#3B7FE5"/>
<stop offset="0.458333" stop-color="#6749D5"/>
<stop offset="0.687502" stop-color="#DC40A4"/>
<stop offset="1" stop-color="#FD7842"/>
</linearGradient>
</defs>
</svg>
