<svg width="20" height="20" viewBox="0 0 20 20" fill="none" xmlns="http://www.w3.org/2000/svg">
<path opacity="0.2" d="M19.9453 10.0003C19.9453 15.4941 15.4918 19.9477 9.99809 19.9477C4.50432 19.9477 0.0507812 15.4941 0.0507812 10.0003C0.0507812 4.50657 4.50432 0.0530396 9.99809 0.0530396C15.4917 0.0530396 19.9453 4.50657 19.9453 10.0003Z" fill="#48A68E"/>
<g clip-path="url(#clip0_115_6796)">
<path fill-rule="evenodd" clip-rule="evenodd" d="M5.60629 4.43485L3.13516 9.82174C3.12576 9.84178 3.12278 9.86441 3.12666 9.88633C3.13053 9.90825 3.14107 9.92831 3.15672 9.94357L9.83065 16.5806C9.84961 16.5995 9.87486 16.61 9.90112 16.61C9.92739 16.61 9.95264 16.5995 9.97159 16.5806L16.6455 9.94398C16.6612 9.92872 16.6717 9.90867 16.6756 9.88675C16.6795 9.86483 16.6765 9.84219 16.6671 9.82216L14.196 4.43526C14.188 4.41717 14.1752 4.40185 14.159 4.39112C14.1429 4.38039 14.1241 4.37471 14.1049 4.37476H5.69812C5.67886 4.37452 5.65994 4.38006 5.64365 4.39072C5.62735 4.40138 5.61438 4.41671 5.60629 4.43485Z" fill="#50AF95"/>
<path fill-rule="evenodd" clip-rule="evenodd" d="M10.7596 10.3751C10.7116 10.3788 10.4641 10.3941 9.9119 10.3941C9.47269 10.3941 9.16086 10.3805 9.05145 10.3751C7.35413 10.2976 6.08722 9.99094 6.08722 9.6238C6.08722 9.25666 7.35413 8.95044 9.05145 8.87171V10.0697C9.16245 10.078 9.48028 10.0974 9.91948 10.0974C10.4465 10.0974 10.7105 10.0746 10.758 10.0701V8.87254C12.4517 8.95085 13.7158 9.25749 13.7158 9.6238C13.7158 9.99011 12.4521 10.2967 10.758 10.3747L10.7596 10.3751ZM10.7596 8.74864V7.67665H13.1233V6.04193H6.68773V7.67665H9.05105V8.74822C7.13013 8.8398 5.68555 9.2347 5.68555 9.70792C5.68555 10.1811 7.13013 10.5756 9.05105 10.6676V14.1028H10.7592V10.6664C12.6757 10.5748 14.1179 10.1803 14.1179 9.7075C14.1179 9.2347 12.6769 8.84021 10.7592 8.74822L10.7596 8.74864Z" fill="#D6D7D9"/>
</g>
<defs>
<clipPath id="clip0_115_6796">
<rect width="14" height="13" fill="white" transform="translate(3 4.00006)"/>
</clipPath>
</defs>
</svg>
