<svg xmlns="http://www.w3.org/2000/svg" width="14" height="15" fill="none" viewBox="0 0 14 15">
    <path fill="#fff" d="M7 .969C3.254.969.219 4.004.219 7.75c0 3.746 3.035 6.781 6.781 6.781 3.746 0 6.781-3.035 6.781-6.781C13.781 4.004 10.746.969 7 .969zm0 12.25c-3.035 0-5.469-2.434-5.469-5.469 0-3.008 2.434-5.469 5.469-5.469 3.008 0 5.469 2.461 5.469 5.469 0 3.035-2.461 5.469-5.469 5.469zm2.762-7.164c.136-.11.136-.328 0-.465l-.602-.602c-.137-.136-.355-.136-.465 0L7 6.684 5.277 4.988c-.109-.136-.328-.136-.465 0l-.601.602c-.137.137-.137.355 0 .465L5.906 7.75 4.211 9.473c-.137.109-.137.328 0 .464l.601.602c.137.137.356.137.465 0L7 8.844l1.695 1.695c.11.137.328.137.465 0l.602-.601c.136-.137.136-.356 0-.465L8.066 7.75l1.696-1.695z"/>
</svg>
