<svg width="25" height="24" viewBox="0 0 25 24" fill="none" xmlns="http://www.w3.org/2000/svg">
<path d="M8.79 20.2534C16.337 20.2534 20.465 14.0004 20.465 8.5784C20.465 8.4004 20.465 8.2234 20.453 8.0484C21.2562 7.46693 21.9493 6.74701 22.5 5.9224C21.7511 6.2544 20.9566 6.47216 20.143 6.5684C20.9996 6.05546 21.6408 5.24875 21.947 4.2984C21.1417 4.77628 20.2607 5.11313 19.342 5.2944C18.7234 4.63616 17.905 4.20023 17.0136 4.0541C16.1222 3.90797 15.2075 4.0598 14.4111 4.48607C13.6147 4.91234 12.9811 5.58927 12.6083 6.41206C12.2355 7.23485 12.1444 8.15758 12.349 9.0374C10.7176 8.95564 9.1216 8.53172 7.66465 7.79317C6.20769 7.05461 4.92233 6.01792 3.892 4.7504C3.36732 5.6536 3.20659 6.72282 3.44254 7.74036C3.67848 8.75791 4.29337 9.64728 5.162 10.2274C4.50926 10.2085 3.87063 10.0329 3.3 9.7154V9.7674C3.30039 10.7147 3.6284 11.6327 4.2284 12.3658C4.8284 13.0988 5.66347 13.6018 6.592 13.7894C5.98781 13.9541 5.35389 13.9781 4.739 13.8594C5.00116 14.6749 5.51168 15.388 6.19913 15.899C6.88658 16.41 7.71657 16.6934 8.573 16.7094C7.72212 17.378 6.74779 17.8722 5.70573 18.1639C4.66367 18.4556 3.57432 18.539 2.5 18.4094C4.3766 19.6137 6.56019 20.2525 8.79 20.2494" fill="#6D7A86"/>
</svg>
