<svg width="64" height="64" viewBox="0 0 64 64" fill="none" xmlns="http://www.w3.org/2000/svg">
<path opacity="0.2" d="M64 31.9998C64 49.673 49.6733 64 32.0002 64C14.3269 64 0 49.673 0 31.9998C0 14.3268 14.3269 0 32.0002 0C49.6731 0 64 14.3268 64 31.9998" fill="#48A68E"/>
<path fill-rule="evenodd" clip-rule="evenodd" d="M19.3236 14.1768L12.03 30.0267C12.0022 30.0857 11.9934 30.1523 12.0049 30.2168C12.0163 30.2813 12.0474 30.3403 12.0936 30.3852L31.792 49.9135C31.848 49.969 31.9225 50 32 50C32.0775 50 32.152 49.969 32.208 49.9135L51.9064 30.3864C51.9526 30.3415 51.9837 30.2825 51.9951 30.218C52.0066 30.1535 51.9978 30.0869 51.97 30.0279L44.6764 14.178C44.6528 14.1248 44.615 14.0797 44.5673 14.0481C44.5197 14.0166 44.4643 13.9999 44.4077 14H19.5947C19.5378 13.9993 19.482 14.0156 19.4339 14.047C19.3858 14.0783 19.3475 14.1234 19.3236 14.1768V14.1768V14.1768Z" fill="#50AF95"/>
<path fill-rule="evenodd" clip-rule="evenodd" d="M34.17 31.614C34.0331 31.6254 33.3259 31.6726 31.7481 31.6726C30.4933 31.6726 29.6023 31.6305 29.2897 31.614C24.4402 31.3755 20.8205 30.432 20.8205 29.3024C20.8205 28.1727 24.4402 27.2305 29.2897 26.9883V30.6743C29.6069 30.6998 30.5149 30.7597 31.7698 30.7597C33.2757 30.7597 34.0297 30.6896 34.1655 30.6756V26.9908C39.0047 27.2318 42.6165 28.1753 42.6165 29.3024C42.6165 30.4295 39.0059 31.373 34.1655 31.6127L34.17 31.614ZM34.17 26.6096V23.3111H40.9235V18.2812H22.5362V23.3111H29.2886V26.6083C23.8002 26.8901 19.6729 28.1052 19.6729 29.5612C19.6729 31.0173 23.8002 32.2311 29.2886 32.5141V43.0839H34.1689V32.5103C39.6447 32.2285 43.7652 31.0147 43.7652 29.5599C43.7652 28.1052 39.6481 26.8914 34.1689 26.6083L34.17 26.6096Z" fill="white"/>
</svg>
