<svg width="44" height="44" viewBox="0 0 44 44" fill="none" xmlns="http://www.w3.org/2000/svg">
<rect x="0.5" y="0.5" width="43" height="43" rx="11.5" fill="#101115"/>
<path d="M28.0003 17.91C27.9703 17.91 27.9503 17.91 27.9203 17.91H27.8703C25.9803 17.85 24.5703 16.39 24.5703 14.59C24.5703 12.75 26.0703 11.26 27.9003 11.26C29.7303 11.26 31.2303 12.76 31.2303 14.59C31.2203 16.4 29.8103 17.86 28.0103 17.92C28.0103 17.91 28.0103 17.91 28.0003 17.91ZM27.9003 12.75C26.8903 12.75 26.0703 13.57 26.0703 14.58C26.0703 15.57 26.8403 16.37 27.8303 16.41C27.8403 16.4 27.9203 16.4 28.0103 16.41C28.9803 16.36 29.7303 15.56 29.7403 14.58C29.7403 13.57 28.9203 12.75 27.9003 12.75Z" fill="url(#paint0_linear_115_6740)"/>
<path d="M28.0105 25.28C27.6205 25.28 27.2305 25.25 26.8405 25.18C26.4305 25.11 26.1605 24.72 26.2305 24.31C26.3005 23.9 26.6905 23.63 27.1005 23.7C28.3305 23.91 29.6305 23.68 30.5005 23.1C30.9705 22.79 31.2205 22.4 31.2205 22.01C31.2205 21.62 30.9605 21.24 30.5005 20.93C29.6305 20.35 28.3105 20.12 27.0705 20.34C26.6605 20.42 26.2705 20.14 26.2005 19.73C26.1305 19.32 26.4005 18.93 26.8105 18.86C28.4405 18.57 30.1305 18.88 31.3305 19.68C32.2105 20.27 32.7205 21.11 32.7205 22.01C32.7205 22.9 32.2205 23.75 31.3305 24.35C30.4205 24.95 29.2405 25.28 28.0105 25.28Z" fill="url(#paint1_linear_115_6740)"/>
<path d="M15.9705 17.91C15.9605 17.91 15.9505 17.91 15.9505 17.91C14.1505 17.85 12.7405 16.39 12.7305 14.59C12.7305 12.75 14.2305 11.25 16.0605 11.25C17.8905 11.25 19.3905 12.75 19.3905 14.58C19.3905 16.39 17.9805 17.85 16.1805 17.91L15.9705 17.16L16.0405 17.91C16.0205 17.91 15.9905 17.91 15.9705 17.91ZM16.0705 16.41C16.1305 16.41 16.1805 16.41 16.2405 16.42C17.1305 16.38 17.9105 15.58 17.9105 14.59C17.9105 13.58 17.0905 12.76 16.0805 12.76C15.0705 12.76 14.2505 13.58 14.2505 14.59C14.2505 15.57 15.0105 16.36 15.9805 16.42C15.9905 16.41 16.0305 16.41 16.0705 16.41Z" fill="url(#paint2_linear_115_6740)"/>
<path d="M15.96 25.28C14.73 25.28 13.55 24.95 12.64 24.35C11.76 23.76 11.25 22.91 11.25 22.01C11.25 21.12 11.76 20.27 12.64 19.68C13.84 18.88 15.53 18.57 17.16 18.86C17.57 18.93 17.84 19.32 17.77 19.73C17.7 20.14 17.31 20.42 16.9 20.34C15.66 20.12 14.35 20.35 13.47 20.93C13 21.24 12.75 21.62 12.75 22.01C12.75 22.4 13.01 22.79 13.47 23.1C14.34 23.68 15.64 23.91 16.87 23.7C17.28 23.63 17.67 23.91 17.74 24.31C17.81 24.72 17.54 25.11 17.13 25.18C16.74 25.25 16.35 25.28 15.96 25.28Z" fill="url(#paint3_linear_115_6740)"/>
<path d="M22.0003 25.38C21.9703 25.38 21.9503 25.38 21.9203 25.38H21.8703C19.9803 25.32 18.5703 23.86 18.5703 22.06C18.5703 20.22 20.0703 18.73 21.9003 18.73C23.7303 18.73 25.2303 20.23 25.2303 22.06C25.2203 23.87 23.8103 25.33 22.0103 25.39C22.0103 25.38 22.0103 25.38 22.0003 25.38ZM21.9003 20.22C20.8903 20.22 20.0703 21.04 20.0703 22.05C20.0703 23.04 20.8403 23.84 21.8303 23.88C21.8403 23.87 21.9203 23.87 22.0103 23.88C22.9803 23.83 23.7303 23.03 23.7403 22.05C23.7403 21.05 22.9203 20.22 21.9003 20.22Z" fill="url(#paint4_linear_115_6740)"/>
<path d="M21.9993 32.76C20.7993 32.76 19.5993 32.45 18.6693 31.82C17.7893 31.23 17.2793 30.39 17.2793 29.49C17.2793 28.6 17.7793 27.74 18.6693 27.15C20.5393 25.91 23.4693 25.91 25.3293 27.15C26.2093 27.74 26.7193 28.58 26.7193 29.48C26.7193 30.37 26.2193 31.23 25.3293 31.82C24.3993 32.44 23.1993 32.76 21.9993 32.76ZM19.4993 28.41C19.0293 28.72 18.7793 29.11 18.7793 29.5C18.7793 29.89 19.0393 30.27 19.4993 30.58C20.8493 31.49 23.1393 31.49 24.4893 30.58C24.9593 30.27 25.2093 29.88 25.2093 29.49C25.2093 29.1 24.9493 28.72 24.4893 28.41C23.1493 27.5 20.8593 27.51 19.4993 28.41Z" fill="url(#paint5_linear_115_6740)"/>
<rect x="0.5" y="0.5" width="43" height="43" rx="11.5" stroke="#1A1C22"/>
<defs>
<linearGradient id="paint0_linear_115_6740" x1="27.9003" y1="11.26" x2="27.9003" y2="17.92" gradientUnits="userSpaceOnUse">
<stop stop-color="#4DFFDF"/>
<stop offset="1" stop-color="#4DA1FF"/>
</linearGradient>
<linearGradient id="paint1_linear_115_6740" x1="29.455" y1="18.7533" x2="29.455" y2="25.28" gradientUnits="userSpaceOnUse">
<stop stop-color="#4DFFDF"/>
<stop offset="1" stop-color="#4DA1FF"/>
</linearGradient>
<linearGradient id="paint2_linear_115_6740" x1="16.0605" y1="11.25" x2="16.0605" y2="17.91" gradientUnits="userSpaceOnUse">
<stop stop-color="#4DFFDF"/>
<stop offset="1" stop-color="#4DA1FF"/>
</linearGradient>
<linearGradient id="paint3_linear_115_6740" x1="14.5155" y1="18.7533" x2="14.5155" y2="25.28" gradientUnits="userSpaceOnUse">
<stop stop-color="#4DFFDF"/>
<stop offset="1" stop-color="#4DA1FF"/>
</linearGradient>
<linearGradient id="paint4_linear_115_6740" x1="21.9003" y1="18.73" x2="21.9003" y2="25.39" gradientUnits="userSpaceOnUse">
<stop stop-color="#4DFFDF"/>
<stop offset="1" stop-color="#4DA1FF"/>
</linearGradient>
<linearGradient id="paint5_linear_115_6740" x1="21.9993" y1="26.22" x2="21.9993" y2="32.76" gradientUnits="userSpaceOnUse">
<stop stop-color="#4DFFDF"/>
<stop offset="1" stop-color="#4DA1FF"/>
</linearGradient>
</defs>
</svg>
