<svg width="32" height="32" viewBox="0 0 32 32" fill="none" xmlns="http://www.w3.org/2000/svg">
<rect width="32" height="32" rx="16" fill="#101115"/>
<path d="M18.3757 9.29168V12.4583H17.1257V9.29168C17.1257 9.06668 16.9257 8.95834 16.7923 8.95834C16.7507 8.95834 16.709 8.96668 16.6673 8.98334L10.059 11.475C9.61732 11.6417 9.33398 12.0583 9.33398 12.5333V13.0917C8.57565 13.6583 8.08398 14.5667 8.08398 15.5917V12.5333C8.08398 11.5417 8.69232 10.6583 9.61732 10.3083L16.234 7.80834C16.4173 7.74168 16.609 7.70834 16.7923 7.70834C17.6257 7.70834 18.3757 8.38334 18.3757 9.29168Z" fill="url(#paint0_linear_115_6700)"/>
<path d="M23.9159 18.0833V18.9167C23.9159 19.1417 23.7409 19.325 23.5076 19.3333H22.2909C21.8493 19.3333 21.4493 19.0083 21.4159 18.575C21.3909 18.3167 21.4909 18.075 21.6576 17.9083C21.8076 17.75 22.0159 17.6667 22.2409 17.6667H23.4993C23.7409 17.675 23.9159 17.8583 23.9159 18.0833Z" fill="url(#paint1_linear_115_6700)"/>
<path d="M22.234 16.7917H23.084C23.5423 16.7917 23.9173 16.4167 23.9173 15.9583V15.5917C23.9173 13.8667 22.509 12.4583 20.784 12.4583H11.2173C10.509 12.4583 9.85898 12.6917 9.33398 13.0917C8.57565 13.6583 8.08398 14.5667 8.08398 15.5917V21.2C8.08398 22.925 9.49232 24.3333 11.2173 24.3333H20.784C22.509 24.3333 23.9173 22.925 23.9173 21.2V21.0417C23.9173 20.5833 23.5423 20.2083 23.084 20.2083H22.359C21.559 20.2083 20.7923 19.7167 20.584 18.9417C20.409 18.3083 20.6173 17.7 21.034 17.2917C21.3423 16.975 21.7673 16.7917 22.234 16.7917ZM17.6673 16.625H11.834C11.4923 16.625 11.209 16.3417 11.209 16C11.209 15.6583 11.4923 15.375 11.834 15.375H17.6673C18.009 15.375 18.2923 15.6583 18.2923 16C18.2923 16.3417 18.009 16.625 17.6673 16.625Z" fill="url(#paint2_linear_115_6700)"/>
<defs>
<linearGradient id="paint0_linear_115_6700" x1="8.08398" y1="7.70834" x2="24.2649" y2="17.7953" gradientUnits="userSpaceOnUse">
<stop stop-color="#3AF485"/>
<stop offset="1" stop-color="#09BDBB"/>
</linearGradient>
<linearGradient id="paint1_linear_115_6700" x1="21.4121" y1="17.6667" x2="25.0212" y2="20.2557" gradientUnits="userSpaceOnUse">
<stop stop-color="#3AF485"/>
<stop offset="1" stop-color="#09BDBB"/>
</linearGradient>
<linearGradient id="paint2_linear_115_6700" x1="8.08398" y1="12.4583" x2="32.6811" y2="28.1188" gradientUnits="userSpaceOnUse">
<stop stop-color="#3AF485"/>
<stop offset="1" stop-color="#09BDBB"/>
</linearGradient>
</defs>
</svg>
