<svg width="140" height="140" viewBox="0 0 140 140" fill="none" xmlns="http://www.w3.org/2000/svg">
<g clip-path="url(#clip0_846_8358)">
<path fill-rule="evenodd" clip-rule="evenodd" d="M70 0C108.664 0 140 31.3359 140 70C140 108.664 108.664 140 70 140C31.3359 140 0 108.664 0 70C0 31.3359 31.3359 0 70 0Z" fill="url(#paint0_radial_846_8358)"/>
<path d="M44.4883 54.0586C58.5703 40.3047 81.4297 40.3047 95.5117 54.0586L97.207 55.7266C97.918 56.4102 97.918 57.5312 97.207 58.2148L91.4102 63.875C91.0547 64.2305 90.4805 64.2305 90.125 63.875L87.8008 61.6055C77.957 52.0078 62.043 52.0078 52.1992 61.6055L49.7109 64.0391C49.3555 64.3945 48.7813 64.3945 48.4258 64.0391L42.6289 58.3789C41.918 57.6953 41.918 56.5742 42.6289 55.8906L44.4883 54.0586ZM107.516 65.7617L112.684 70.793C113.395 71.4766 113.395 72.5977 112.684 73.2813L89.4141 96.0039C88.7031 96.6875 87.5547 96.6875 86.8711 96.0039L70.3555 79.8711C70.1914 79.707 69.8906 79.707 69.7266 79.8711L53.2109 96.0039C52.5 96.6875 51.3516 96.6875 50.668 96.0039L27.3164 73.2813C26.6055 72.5977 26.6055 71.4766 27.3164 70.793L32.4844 65.7617C33.1953 65.0781 34.3438 65.0781 35.0273 65.7617L51.543 81.8945C51.707 82.0586 52.0078 82.0586 52.1719 81.8945L68.6875 65.7617C69.3984 65.0781 70.5469 65.0781 71.2305 65.7617L87.7461 81.8945C87.9102 82.0586 88.2109 82.0586 88.375 81.8945L104.891 65.7617C105.656 65.0781 106.805 65.0781 107.516 65.7617Z" fill="white"/>
</g>
<defs>
<radialGradient id="paint0_radial_846_8358" cx="0" cy="0" r="1" gradientUnits="userSpaceOnUse" gradientTransform="translate(0.000433922 70.0022) scale(140)">
<stop stop-color="#5D9DF6"/>
<stop offset="1" stop-color="#006FFF"/>
</radialGradient>
<clipPath id="clip0_846_8358">
<rect width="140" height="140" fill="white"/>
</clipPath>
</defs>
</svg>
