<svg width="200" height="200" viewBox="0 0 200 200" fill="none" xmlns="http://www.w3.org/2000/svg">
<path fill-rule="evenodd" clip-rule="evenodd" d="M100 0C155.234 0 200 44.7656 200 100C200 155.234 155.234 200 100 200C44.7656 200 0 155.234 0 100C0 44.7656 44.7656 0 100 0Z" fill="url(#paint0_radial_837_8224)"/>
<path d="M63.5547 77.2266C83.6719 57.5781 116.328 57.5781 136.445 77.2266L138.867 79.6094C139.883 80.5859 139.883 82.1875 138.867 83.1641L130.586 91.25C130.078 91.7578 129.258 91.7578 128.75 91.25L125.43 88.0078C111.367 74.2969 88.6328 74.2969 74.5703 88.0078L71.0156 91.4844C70.5078 91.9922 69.6875 91.9922 69.1797 91.4844L60.8984 83.3984C59.8828 82.4219 59.8828 80.8203 60.8984 79.8437L63.5547 77.2266ZM153.594 93.9453L160.977 101.133C161.992 102.109 161.992 103.711 160.977 104.688L127.734 137.148C126.719 138.125 125.078 138.125 124.102 137.148L100.508 114.102C100.273 113.867 99.8438 113.867 99.6094 114.102L76.0156 137.148C75 138.125 73.3594 138.125 72.3828 137.148L39.0234 104.688C38.0078 103.711 38.0078 102.109 39.0234 101.133L46.4062 93.9453C47.4219 92.9688 49.0625 92.9688 50.0391 93.9453L73.6328 116.992C73.8672 117.227 74.2969 117.227 74.5312 116.992L98.125 93.9453C99.1406 92.9688 100.781 92.9688 101.758 93.9453L125.352 116.992C125.586 117.227 126.016 117.227 126.25 116.992L149.844 93.9453C150.937 92.9688 152.578 92.9688 153.594 93.9453Z" fill="white"/>
<defs>
<radialGradient id="paint0_radial_837_8224" cx="0" cy="0" r="1" gradientUnits="userSpaceOnUse" gradientTransform="translate(0.000619888 100.003) scale(200)">
<stop stop-color="#5D9DF6"/>
<stop offset="1" stop-color="#006FFF"/>
</radialGradient>
</defs>
</svg>
