<svg width="256" height="256" viewBox="0 0 256 256" fill="none" xmlns="http://www.w3.org/2000/svg">
<path fill-rule="evenodd" clip-rule="evenodd" d="M128 0C198.7 0 256 57.3 256 128C256 198.7 198.7 256 128 256C57.3 256 0 198.7 0 128C0 57.3 57.3 0 128 0Z" fill="url(#paint0_radial_837_8224)"/>
<path d="M81.3496 98.8498C107.1 73.6998 148.9 73.6998 174.65 98.8498L177.75 101.9C179.05 103.15 179.05 105.2 177.75 106.45L167.15 116.8C166.5 117.45 165.45 117.45 164.8 116.8L160.55 112.65C142.55 95.0998 113.45 95.0998 95.4496 112.65L90.8996 117.1C90.2496 117.75 89.1996 117.75 88.5496 117.1L77.9496 106.75C76.6496 105.5 76.6496 103.45 77.9496 102.2L81.3496 98.8498ZM196.6 120.25L206.05 129.45C207.35 130.7 207.35 132.75 206.05 134L163.5 175.55C162.2 176.8 160.1 176.8 158.85 175.55L128.65 146.05C128.35 145.75 127.8 145.75 127.5 146.05L97.2996 175.55C95.9996 176.8 93.8996 176.8 92.6496 175.55L49.9496 134C48.6496 132.75 48.6496 130.7 49.9496 129.45L59.3996 120.25C60.6996 119 62.7996 119 64.0496 120.25L94.2496 149.75C94.5496 150.05 95.0996 150.05 95.3996 149.75L125.6 120.25C126.9 119 129 119 130.25 120.25L160.45 149.75C160.75 150.05 161.3 150.05 161.6 149.75L191.8 120.25C193.2 119 195.3 119 196.6 120.25Z" fill="white"/>
<defs>
<radialGradient id="paint0_radial_837_8224" cx="0" cy="0" r="1" gradientUnits="userSpaceOnUse" gradientTransform="translate(0.000793457 128.004) scale(256)">
<stop stop-color="#5D9DF6"/>
<stop offset="1" stop-color="#006FFF"/>
</radialGradient>
</defs>
</svg>
